<svg width="43" height="29" viewBox="0 0 43 29" fill="none" xmlns="http://www.w3.org/2000/svg">
<path fill-rule="evenodd" clip-rule="evenodd" d="M0.0625 14.5C0.0625 14.0939 0.223828 13.7044 0.510993 13.4172C0.798158 13.1301 1.18764 12.9687 1.59375 12.9687H37.7098L28.0721 3.33411C27.7846 3.04658 27.6231 2.65661 27.6231 2.24998C27.6231 1.84336 27.7846 1.45338 28.0721 1.16586C28.3597 0.878328 28.7496 0.716797 29.1562 0.716797C29.5629 0.716797 29.9528 0.878328 30.2404 1.16586L42.4904 13.4159C42.633 13.5581 42.7461 13.7271 42.8233 13.9131C42.9005 14.0991 42.9402 14.2986 42.9402 14.5C42.9402 14.7014 42.9005 14.9008 42.8233 15.0869C42.7461 15.2729 42.633 15.4419 42.4904 15.5841L30.2404 27.8341C29.9528 28.1216 29.5629 28.2832 29.1562 28.2832C28.7496 28.2832 28.3597 28.1216 28.0721 27.8341C27.7846 27.5466 27.6231 27.1566 27.6231 26.75C27.6231 26.3434 27.7846 25.9534 28.0721 25.6659L37.7098 16.0312H1.59375C1.18764 16.0312 0.798158 15.8699 0.510993 15.5827C0.223828 15.2956 0.0625 14.9061 0.0625 14.5Z" fill="black"/>
</svg>
