<svg width="40" height="44" viewBox="0 0 40 44" fill="none" xmlns="http://www.w3.org/2000/svg">
<path d="M30.6874 32.875C35.0022 32.875 38.5 29.3073 38.5 24.9063V8.96875C38.5 4.56773 35.0022 1 30.6874 1H18.1876C13.8728 1 10.375 4.56773 10.375 8.96875" fill="white"/>
<path d="M30.6874 32.875C35.0022 32.875 38.5 29.3073 38.5 24.9063V8.96875C38.5 4.56773 35.0022 1 30.6874 1H18.1876C13.8728 1 10.375 4.56773 10.375 8.96875" stroke="black" stroke-width="2" stroke-linecap="round"/>
<path d="M1 18.3438C1 13.9427 4.49777 10.375 8.81251 10.375H21.3124C25.6272 10.375 29.125 13.9427 29.125 18.3438V34.2813C29.125 38.6823 25.6272 42.25 21.3124 42.25H8.81251C4.49777 42.25 1 38.6823 1 34.2813V18.3438Z" fill="white" stroke="black" stroke-width="2"/>
</svg>
