<svg width="56" height="73" viewBox="0 0 56 73" fill="none" xmlns="http://www.w3.org/2000/svg">
<g clip-path="url(#clip0_23_41)">
<path d="M41.1539 72.1875H7.90247C7.84625 72.1876 7.79061 72.1736 7.73896 72.1464C7.68731 72.1193 7.64074 72.0795 7.60211 72.0296C7.56323 71.9801 7.53299 71.9215 7.51325 71.8572C7.4935 71.793 7.48466 71.7246 7.48726 71.656L9.14986 26.9116C9.15319 26.8212 9.1762 26.7334 9.21651 26.6575C9.25681 26.5816 9.31295 26.5202 9.37913 26.4797C9.55821 26.37 11.1559 25.4092 12.0589 25.4092C12.5728 25.4092 13.0399 25.6951 13.4917 25.9713C13.8741 26.2051 14.2349 26.426 14.5523 26.426C14.8698 26.426 15.231 26.2051 15.6133 25.9713C16.0655 25.6951 16.5327 25.4092 17.0462 25.4092C17.5596 25.4092 18.0269 25.6951 18.479 25.9713C18.8614 26.2051 19.2225 26.426 19.5399 26.426C19.8573 26.426 20.2186 26.2051 20.601 25.9713C21.0532 25.6951 21.5204 25.4092 22.0338 25.4092C22.5472 25.4092 23.0145 25.6946 23.4666 25.9713C23.849 26.2051 24.2106 26.426 24.528 26.426C24.8455 26.426 25.2067 26.2051 25.589 25.9713C26.0408 25.6951 26.508 25.4092 27.0218 25.4092C27.5356 25.4092 28.0025 25.6951 28.4546 25.9713C28.837 26.2051 29.1982 26.426 29.5156 26.426C29.833 26.426 30.1943 26.2051 30.5767 25.9713C31.0289 25.6951 31.4956 25.4092 32.0095 25.4092C32.5233 25.4092 32.9902 25.6951 33.4423 25.9713C33.8247 26.2051 34.1859 26.426 34.5033 26.426C34.8207 26.426 35.182 26.2051 35.5644 25.9713C36.0166 25.6951 36.4833 25.4092 36.9972 25.4092C37.9007 25.4092 39.4976 26.37 39.6769 26.4797C39.7431 26.5202 39.7992 26.5815 39.8395 26.6575C39.8797 26.7334 39.9026 26.8212 39.9058 26.9116L41.5683 71.656C41.5711 71.7245 41.5624 71.793 41.5427 71.8573C41.523 71.9215 41.4928 71.9801 41.4539 72.0296C41.4154 72.0796 41.3689 72.1194 41.3173 72.1465C41.2657 72.1737 41.2101 72.1876 41.1539 72.1875ZM8.33763 71.1705H40.7187L39.087 27.2607C38.5383 26.9469 37.5171 26.426 36.9975 26.426C36.68 26.426 36.3188 26.647 35.9365 26.8808C35.4842 27.157 35.0175 27.4429 34.5036 27.4429C33.9898 27.4429 33.5229 27.157 33.0708 26.8808C32.6885 26.647 32.3273 26.426 32.0098 26.426C31.6924 26.426 31.3312 26.647 30.9488 26.8808C30.4966 27.157 30.0298 27.4429 29.516 27.4429C29.0021 27.4429 28.5353 27.157 28.0831 26.8808C27.7008 26.647 27.3396 26.426 27.0221 26.426C26.7047 26.426 26.3435 26.647 25.9612 26.8808C25.5094 27.157 25.0422 27.4429 24.5284 27.4429C24.0145 27.4429 23.5473 27.157 23.095 26.8808C22.7127 26.647 22.3515 26.426 22.0341 26.426C21.7167 26.426 21.3554 26.647 20.9732 26.8808C20.521 27.157 20.0538 27.4429 19.5403 27.4429C19.0268 27.4429 18.5595 27.157 18.1074 26.8808C17.7251 26.647 17.3638 26.426 17.0465 26.426C16.729 26.426 16.3678 26.647 15.9855 26.8808C15.5333 27.157 15.0661 27.4429 14.5527 27.4429C14.0392 27.4429 13.572 27.1575 13.1203 26.8808C12.7379 26.647 12.3766 26.426 12.0592 26.426C11.5835 26.426 10.6073 26.8948 9.96926 27.2602L8.33763 71.1705Z" fill="black"/>
<path d="M39.4913 70.1537H9.56504C9.51045 70.1538 9.45639 70.1406 9.40595 70.1151C9.35552 70.0896 9.30969 70.0521 9.27109 70.0049C9.23249 69.9577 9.20187 69.9016 9.181 69.8399C9.16012 69.7782 9.14939 69.7121 9.14941 69.6453C9.14939 69.5785 9.16012 69.5124 9.181 69.4507C9.20187 69.389 9.23249 69.3329 9.27109 69.2857C9.30969 69.2385 9.35552 69.201 9.40595 69.1755C9.45639 69.15 9.51045 69.1368 9.56504 69.1369H39.4912C39.5458 69.1368 39.5999 69.15 39.6503 69.1755C39.7007 69.201 39.7466 69.2385 39.7852 69.2857C39.8238 69.3329 39.8544 69.389 39.8752 69.4507C39.8961 69.5124 39.9069 69.5785 39.9068 69.6453C39.9069 69.7121 39.8962 69.7782 39.8753 69.8399C39.8544 69.9016 39.8238 69.9577 39.7852 70.0049C39.7466 70.0521 39.7008 70.0895 39.6504 70.1151C39.5999 70.1406 39.5459 70.1538 39.4913 70.1537ZM27.6934 24.3923C27.6265 24.3924 27.5607 24.3728 27.5014 24.335C27.4421 24.2973 27.3911 24.2427 27.3528 24.1757C27.3144 24.1087 27.2899 24.0314 27.2812 23.9504C27.2725 23.8693 27.28 23.7869 27.3029 23.7101L31.2434 10.4664C31.6679 9.03802 32.647 7.96305 34.0003 7.43872C35.3162 6.92978 36.8318 7.00327 38.2744 7.6452C41.3819 9.02759 42.1727 12.5604 41.3479 15.3356L39.5967 24.0062C39.5837 24.0711 39.5604 24.1322 39.528 24.186C39.4957 24.2398 39.4549 24.2853 39.4082 24.3198C39.3614 24.3543 39.3095 24.3772 39.2555 24.3871C39.2015 24.397 39.1464 24.3938 39.0935 24.3776C38.9865 24.3451 38.8944 24.262 38.8375 24.1466C38.7805 24.0311 38.7634 23.8927 38.7898 23.7618L40.5539 15.0396C41.2293 12.7586 40.7057 9.80912 37.9902 8.60053C36.7189 8.03501 35.3916 7.96839 34.2511 8.40829C33.1494 8.83472 32.3588 9.68935 32.0242 10.814L28.0837 24.0577C28.0546 24.1557 28.0015 24.2404 27.9317 24.3002C27.8618 24.3601 27.7786 24.3922 27.6934 24.3923Z" fill="black"/>
<path d="M38.9053 17.6318C38.8353 17.6319 38.7664 17.6103 38.7051 17.5691C38.6438 17.5278 38.592 17.4683 38.5546 17.3959C38.5489 17.386 37.854 16.1138 36.0007 15.2901C34.1482 14.4653 32.9475 14.8924 32.9345 14.8958C32.721 14.9768 32.4839 14.8283 32.4158 14.5597C32.3832 14.4316 32.3934 14.293 32.4442 14.1741C32.4951 14.0553 32.5823 13.9659 32.6869 13.9256C32.7445 13.9022 34.1489 13.3815 36.2848 14.3348C38.4239 15.2857 39.2235 16.7872 39.2559 16.8507C39.3151 16.9645 39.3349 17.1023 39.311 17.2339C39.2871 17.3655 39.2215 17.48 39.1285 17.5524C39.0617 17.6041 38.9843 17.6315 38.9053 17.6318ZM37.1989 23.3656C37.1289 23.3658 37.0601 23.3442 36.9987 23.3029C36.9374 23.2617 36.8856 23.2021 36.8481 23.1298C36.8424 23.1199 36.1476 21.8477 34.2952 21.023C32.4394 20.1972 31.242 20.6258 31.229 20.6297C31.0179 20.7111 30.7784 20.5627 30.7102 20.2939C30.6776 20.1658 30.6878 20.0271 30.7386 19.9081C30.7894 19.7892 30.8767 19.6997 30.9813 19.6594C31.0397 19.6375 32.4426 19.1171 34.5792 20.0675C36.7174 21.0194 37.5172 22.5209 37.5496 22.5845C37.5896 22.6613 37.612 22.7499 37.6144 22.841C37.6168 22.932 37.5992 23.0222 37.5633 23.1021C37.5275 23.1819 37.4747 23.2485 37.4106 23.2949C37.3465 23.3413 37.2734 23.3657 37.1989 23.3656ZM11.2274 24.3924C11.1274 24.3923 11.0308 24.3482 10.9552 24.268C10.8797 24.1878 10.8304 24.077 10.8162 23.956L9.1536 9.71935C9.14587 9.65323 9.14887 9.5859 9.16241 9.5212C9.17596 9.45649 9.19979 9.39569 9.23254 9.34226C9.2653 9.28882 9.30634 9.2438 9.35332 9.20977C9.4003 9.17574 9.4523 9.15336 9.50635 9.14391C9.73448 9.1017 9.94431 9.29737 9.97674 9.57543L11.6393 23.8122C11.6477 23.8843 11.6434 23.9578 11.6265 24.0277C11.6097 24.0977 11.5807 24.1623 11.5416 24.2173C11.5026 24.2724 11.4543 24.3165 11.4001 24.3467C11.3458 24.3769 11.2869 24.3925 11.2274 24.3924Z" fill="black"/>
<path d="M13.7214 24.3924C13.6279 24.3923 13.5373 24.3537 13.464 24.2828C13.3907 24.2119 13.3391 24.1129 13.3175 24.0017C13.2968 23.8959 11.2345 13.3803 9.22735 9.94268C9.19562 9.88837 9.17295 9.82695 9.16063 9.76192C9.14831 9.69689 9.14658 9.62953 9.15555 9.56368C9.16452 9.49783 9.184 9.43479 9.21289 9.37816C9.24177 9.32153 9.2795 9.27241 9.32391 9.23362C9.36828 9.19474 9.41849 9.16695 9.47166 9.15184C9.52483 9.13673 9.57991 9.1346 9.63375 9.14557C9.68759 9.15654 9.73914 9.1804 9.78543 9.21578C9.83173 9.25115 9.87186 9.29735 9.90354 9.35173C12.0049 12.9507 14.0405 23.3263 14.1262 23.7662C14.1408 23.8409 14.1413 23.9188 14.1277 23.9938C14.1142 24.0688 14.0869 24.1391 14.0479 24.1994C14.0089 24.2596 13.9593 24.3083 13.9028 24.3417C13.8462 24.3752 13.7842 24.3925 13.7214 24.3924ZM16.2152 24.3924C16.122 24.3923 16.0316 24.3538 15.9584 24.2832C15.8852 24.2126 15.8336 24.1139 15.8118 24.0031C13.9508 14.5759 11.7247 9.95412 11.7024 9.90835C11.6459 9.79266 11.6292 9.65425 11.6561 9.52354C11.6829 9.39283 11.7511 9.28051 11.8456 9.21124C11.8924 9.1769 11.9443 9.15417 11.9982 9.14437C12.0522 9.13457 12.1072 9.13788 12.1602 9.15412C12.2131 9.17035 12.2629 9.1992 12.3067 9.239C12.3505 9.2788 12.3875 9.32877 12.4155 9.38606C12.5092 9.57677 14.725 14.1668 16.6194 23.7648C16.6323 23.8297 16.6345 23.897 16.6261 23.963C16.6176 24.0289 16.5986 24.0922 16.5701 24.1492C16.5417 24.2061 16.5043 24.2557 16.4602 24.2949C16.416 24.3342 16.366 24.3624 16.3129 24.378C16.281 24.3877 16.2481 24.3925 16.2152 24.3924Z" fill="black"/>
<path d="M11.6441 12.1897C11.6108 12.1897 11.5767 12.1847 11.5429 12.1743C11.49 12.1582 11.4401 12.1294 11.3962 12.0897C11.3524 12.05 11.3153 12.0001 11.2872 11.9429C11.2591 11.8856 11.2406 11.8222 11.2325 11.7562C11.2245 11.6901 11.2272 11.6228 11.2405 11.558L11.6562 9.52418C11.6692 9.45927 11.6926 9.39816 11.725 9.34437C11.7574 9.29058 11.7982 9.24518 11.8451 9.2108C11.8919 9.17641 11.9439 9.15371 11.9979 9.14402C12.052 9.13433 12.107 9.13783 12.16 9.15433C12.2129 9.17044 12.2628 9.19918 12.3066 9.23889C12.3505 9.2786 12.3875 9.3285 12.4156 9.38574C12.4437 9.44298 12.4623 9.50644 12.4703 9.57247C12.4783 9.63851 12.4756 9.70583 12.4623 9.77058L12.0467 11.8044C12.0243 11.9144 11.9726 12.012 11.8996 12.0819C11.8266 12.1517 11.7367 12.1896 11.6441 12.1897ZM26.1911 24.3924C26.1365 24.3924 26.0825 24.3793 26.032 24.3538C25.9816 24.3282 25.9357 24.2908 25.8971 24.2436C25.8585 24.1964 25.8279 24.1403 25.8071 24.0786C25.7862 24.0169 25.7754 23.9508 25.7755 23.884V20.3248H18.2939V23.884C18.2939 24.1651 18.108 24.3924 17.8783 24.3924C17.6486 24.3924 17.4627 24.1651 17.4627 23.884V19.8164C17.4627 19.7496 17.4734 19.6835 17.4943 19.6218C17.5151 19.5601 17.5458 19.504 17.5844 19.4568C17.623 19.4096 17.6688 19.3721 17.7192 19.3466C17.7697 19.3211 17.8237 19.3079 17.8783 19.308H26.1911C26.2457 19.3079 26.2997 19.3211 26.3502 19.3466C26.4006 19.3721 26.4465 19.4096 26.4851 19.4568C26.5237 19.504 26.5543 19.5601 26.5751 19.6218C26.596 19.6835 26.6067 19.7496 26.6067 19.8164V23.884C26.6067 23.9508 26.596 24.0169 26.5751 24.0786C26.5543 24.1403 26.5237 24.1964 26.4851 24.2436C26.4465 24.2908 26.4006 24.3282 26.3502 24.3538C26.2997 24.3793 26.2457 24.3924 26.1911 24.3924Z" fill="black"/>
<path d="M23.6972 24.3926C23.6426 24.3926 23.5885 24.3795 23.5381 24.354C23.4877 24.3284 23.4418 24.291 23.4032 24.2438C23.3646 24.1966 23.334 24.1405 23.3131 24.0788C23.2923 24.0171 23.2815 23.951 23.2816 23.8842C23.2816 23.043 22.7222 22.3589 22.0346 22.3589C21.347 22.3589 20.7876 23.043 20.7876 23.8842C20.7876 23.951 20.7769 24.0171 20.756 24.0788C20.7351 24.1405 20.7045 24.1966 20.6659 24.2438C20.6273 24.291 20.5815 24.3284 20.5311 24.354C20.4806 24.3795 20.4266 24.3926 20.372 24.3926C20.3174 24.3927 20.2633 24.3795 20.2129 24.354C20.1624 24.3285 20.1166 24.291 20.078 24.2438C20.0394 24.1966 20.0088 24.1405 19.9879 24.0788C19.967 24.0171 19.9563 23.951 19.9564 23.8842C19.9564 22.4825 20.8887 21.3419 22.0346 21.3419C23.1804 21.3419 24.1128 22.4825 24.1128 23.8842C24.1128 23.951 24.1021 24.0171 24.0812 24.0788C24.0603 24.1405 24.0297 24.1966 23.9911 24.2438C23.9525 24.291 23.9067 24.3284 23.8563 24.354C23.8058 24.3795 23.7518 24.3926 23.6972 24.3926ZM17.8782 19.3082C17.796 19.3082 17.7156 19.2785 17.6472 19.2226C17.5788 19.1668 17.5255 19.0873 17.494 18.9944C17.4626 18.9015 17.4543 18.7992 17.4704 18.7005C17.4865 18.6019 17.5261 18.5113 17.5843 18.4402L18.4157 17.4233C18.4936 17.328 18.5993 17.2744 18.7095 17.2744C18.8198 17.2744 18.9255 17.328 19.0034 17.4233C19.0813 17.5187 19.1251 17.648 19.1251 17.7828C19.1251 17.9176 19.0813 18.047 19.0034 18.1423L18.172 19.1592C18.1335 19.2065 18.0877 19.244 18.0373 19.2696C17.9869 19.2951 17.9328 19.3083 17.8782 19.3082Z" fill="black"/>
<path d="M25.3599 18.2909H18.7096C18.4799 18.2909 18.2939 18.0635 18.2939 17.7825C18.2939 17.5015 18.4799 17.2739 18.7096 17.2739H25.3599C25.5896 17.2739 25.7755 17.5014 25.7755 17.7825C25.7755 18.0636 25.5896 18.2909 25.3599 18.2909Z" fill="black"/>
<path d="M26.1906 19.3082C26.136 19.3082 26.082 19.2951 26.0315 19.2695C25.9811 19.2439 25.9353 19.2064 25.8967 19.1592L25.0654 18.1423C25.0268 18.0951 24.9962 18.039 24.9753 17.9774C24.9544 17.9157 24.9436 17.8496 24.9436 17.7828C24.9436 17.716 24.9544 17.6499 24.9753 17.5883C24.9962 17.5266 25.0268 17.4705 25.0654 17.4233C25.1039 17.3761 25.1498 17.3387 25.2002 17.3131C25.2506 17.2876 25.3046 17.2744 25.3592 17.2744C25.4138 17.2744 25.4678 17.2876 25.5183 17.3131C25.5687 17.3387 25.6145 17.3761 25.6531 17.4233L26.4844 18.4402C26.5426 18.5113 26.5823 18.6019 26.5983 18.7005C26.6144 18.7991 26.6062 18.9014 26.5747 18.9943C26.5433 19.0873 26.49 19.1667 26.4216 19.2226C26.3532 19.2784 26.2729 19.3082 26.1906 19.3082ZM19.5599 56.6583C19.4582 56.6582 19.36 56.6126 19.2838 56.5301C17.5977 54.6969 16.6309 52.0652 16.6309 49.3074C16.6309 43.9807 20.1735 39.6463 24.528 39.6463C25.1177 39.6463 25.7056 39.7263 26.2754 39.8832C26.3287 39.8978 26.379 39.9252 26.4236 39.9637C26.4682 40.0021 26.5062 40.051 26.5354 40.1074C26.5646 40.1638 26.5843 40.2267 26.5936 40.2925C26.6029 40.3583 26.6015 40.4257 26.5895 40.4908C26.5388 40.7649 26.3144 40.9378 26.0927 40.8751C25.5791 40.7344 25.0544 40.6635 24.528 40.6636C20.6317 40.6636 17.4621 44.5406 17.4621 49.3073C17.4626 50.5283 17.6744 51.7353 18.0835 52.8491C18.4926 53.9628 19.0898 54.958 19.8358 55.7692C19.8988 55.8377 19.9432 55.9281 19.9633 56.0282C19.9833 56.1283 19.9781 56.2336 19.9481 56.33C19.9182 56.4264 19.8651 56.5094 19.7957 56.568C19.7264 56.6266 19.6442 56.6581 19.5599 56.6583ZM24.528 58.9681C23.9372 58.9682 23.3483 58.8875 22.7721 58.7277C22.7189 58.7129 22.6685 58.6854 22.624 58.6468C22.5794 58.6082 22.5415 58.5592 22.5125 58.5027C22.4834 58.4462 22.4637 58.3832 22.4546 58.3173C22.4454 58.2515 22.447 58.1841 22.4592 58.119C22.5099 57.845 22.732 57.6712 22.9564 57.7367C23.4721 57.8794 23.9993 57.9513 24.528 57.9512C28.4239 57.9512 31.5939 54.0733 31.5939 49.3076C31.5933 48.0917 31.3834 46.8897 30.9778 45.7797C30.5722 44.6698 29.98 43.6768 29.2398 42.8654C29.1576 42.7756 29.1079 42.6495 29.1017 42.5149C29.0954 42.3803 29.1332 42.2482 29.2065 42.1476C29.3616 41.938 29.6254 41.9211 29.7934 42.1079C30.621 43.0144 31.2831 44.1241 31.7366 45.3647C32.19 46.6052 32.4247 47.9488 32.4252 49.3077C32.4252 54.6343 28.8825 58.9681 24.528 58.9681Z" fill="black"/>
<path d="M26.1909 51.8496C26.1363 51.8497 26.0822 51.8365 26.0318 51.811C25.9814 51.7854 25.9355 51.7479 25.897 51.7006L22.5719 47.6329C22.5333 47.5857 22.5027 47.5297 22.4818 47.468C22.4609 47.4063 22.4502 47.3402 22.4502 47.2734C22.4502 47.2067 22.461 47.1406 22.4818 47.0789C22.5027 47.0172 22.5333 46.9612 22.5719 46.914C22.6105 46.8668 22.6563 46.8294 22.7068 46.8038C22.7572 46.7783 22.8112 46.7651 22.8658 46.7651C22.9204 46.7651 22.9744 46.7783 23.0248 46.8039C23.0752 46.8294 23.121 46.8669 23.1596 46.9141L26.4848 50.9816C26.543 51.0527 26.5826 51.1433 26.5987 51.242C26.6148 51.3406 26.6066 51.4429 26.5751 51.5359C26.5436 51.6288 26.4903 51.7082 26.4219 51.7641C26.3535 51.8199 26.2731 51.8497 26.1909 51.8496Z" fill="black"/>
<path d="M22.8657 47.7819C22.7834 47.782 22.703 47.7523 22.6346 47.6964C22.5662 47.6406 22.5129 47.5612 22.4814 47.4682C22.45 47.3753 22.4417 47.273 22.4578 47.1744C22.4739 47.0757 22.5136 46.9851 22.5718 46.914L30.8845 36.7445C30.9231 36.6973 30.969 36.6599 31.0194 36.6343C31.0698 36.6088 31.1238 36.5956 31.1784 36.5956C31.233 36.5956 31.287 36.6088 31.3375 36.6343C31.3879 36.6599 31.4337 36.6973 31.4723 36.7445C31.5109 36.7917 31.5415 36.8478 31.5624 36.9094C31.5833 36.9711 31.594 37.0372 31.594 37.104C31.594 37.1708 31.5833 37.2369 31.5624 37.2985C31.5415 37.3602 31.5109 37.4163 31.4723 37.4635L23.1595 47.633C23.1209 47.6803 23.0752 47.7178 23.0247 47.7433C22.9743 47.7689 22.9203 47.782 22.8657 47.7819ZM18.7092 61.0018C18.627 61.0018 18.5466 60.9721 18.4782 60.9162C18.4098 60.8604 18.3565 60.781 18.3251 60.688C18.2936 60.5951 18.2854 60.4928 18.3015 60.3942C18.3176 60.2955 18.3572 60.205 18.4154 60.1339L25.897 50.9817C25.9749 50.8864 26.0806 50.8328 26.1908 50.8328C26.301 50.8328 26.4068 50.8864 26.4847 50.9817C26.5626 51.0771 26.6064 51.2064 26.6064 51.3412C26.6064 51.4761 26.5626 51.6054 26.4847 51.7007L19.0031 60.8527C18.9646 60.9 18.9188 60.9376 18.8683 60.9631C18.8179 60.9887 18.7638 61.0018 18.7092 61.0018ZM39.4914 27.4432C39.4268 27.4433 39.3631 27.4249 39.3053 27.3896C39.2475 27.3543 39.1973 27.3029 39.1586 27.2397C39.0927 27.1317 39.0645 26.9962 39.0801 26.8628C39.0958 26.7294 39.154 26.6091 39.2421 26.5282L42.5672 23.4775C42.6109 23.4373 42.6606 23.4081 42.7135 23.3915C42.7664 23.3748 42.8215 23.3711 42.8756 23.3806C42.9296 23.3901 42.9817 23.4125 43.0286 23.4466C43.0756 23.4807 43.1166 23.5258 43.1494 23.5793C43.2153 23.6873 43.2435 23.8228 43.2278 23.9562C43.2121 24.0895 43.1539 24.2099 43.0658 24.2908L39.7406 27.3415C39.6658 27.41 39.5782 27.4432 39.4914 27.4432ZM41.9852 70.1539C41.9207 70.1535 41.8571 70.1352 41.7993 70.1003C41.7007 70.0398 41.6258 69.9341 41.591 69.8062C41.5561 69.6783 41.5642 69.5387 41.6133 69.418L43.2759 65.3504C43.379 65.0983 43.629 64.9989 43.8336 65.123C43.9322 65.1833 44.0072 65.2891 44.0421 65.417C44.0769 65.545 44.0688 65.6846 44.0196 65.8052L42.357 69.8729C42.3224 69.9573 42.2693 70.0282 42.2036 70.0779C42.138 70.1275 42.0624 70.1538 41.9852 70.1539Z" fill="black"/>
<path d="M44.2015 67.1021C44.1331 67.1021 44.0657 67.0815 44.0054 67.042C43.9451 67.0025 43.8937 66.9453 43.8557 66.8757L43.3021 65.8598C43.2718 65.8043 43.2507 65.742 43.2401 65.6765C43.2295 65.6109 43.2296 65.5435 43.2403 65.478C43.251 65.4126 43.2721 65.3503 43.3025 65.2948C43.3329 65.2393 43.3719 65.1917 43.4173 65.1547C43.6057 64.9988 43.8655 65.0605 43.9938 65.2957L44.5473 66.3117C44.589 66.3882 44.6129 66.4772 44.6165 66.5691C44.6201 66.661 44.6033 66.7524 44.5678 66.8335C44.5323 66.9146 44.4795 66.9824 44.415 67.0297C44.3505 67.077 44.2767 67.102 44.2015 67.1021ZM45.3096 69.137C45.2045 69.1366 45.1033 69.0875 45.0266 68.9996C44.9498 68.9118 44.903 68.7916 44.8957 68.6632L42.4018 23.9187C42.3944 23.7841 42.4309 23.6514 42.5033 23.5498C42.5758 23.4481 42.6783 23.3858 42.7882 23.3764C43.0067 23.3595 43.2152 23.5687 43.2315 23.8492L45.7254 68.5937C45.7327 68.7282 45.6961 68.8608 45.6237 68.9624C45.5512 69.064 45.4489 69.1264 45.3389 69.136C45.3292 69.136 45.3194 69.137 45.3096 69.137Z" fill="black"/>
<path d="M41.1542 72.1877C41.0824 72.1876 41.0118 72.1648 40.9493 72.1215C40.8868 72.0781 40.8346 72.0157 40.7977 71.9404C40.7695 71.8832 40.7509 71.8197 40.7428 71.7537C40.7348 71.6876 40.7375 71.6203 40.7507 71.5555C40.764 71.4907 40.7876 71.4298 40.8202 71.3762C40.8528 71.3226 40.8937 71.2775 40.9406 71.2433L45.097 68.1926C45.1438 68.1576 45.1959 68.1343 45.2501 68.1241C45.3043 68.1139 45.3596 68.1169 45.4128 68.1329C45.4661 68.149 45.5162 68.1778 45.5603 68.2177C45.6044 68.2575 45.6416 68.3077 45.6698 68.3653C45.698 68.4228 45.7166 68.4866 45.7245 68.553C45.7324 68.6194 45.7295 68.6871 45.7159 68.7521C45.7024 68.8171 45.6784 68.8781 45.6454 68.9318C45.6125 68.9854 45.5712 69.0305 45.5239 69.0645L41.3675 72.1152C41.301 72.1639 41.2271 72.1877 41.1542 72.1877Z" fill="black"/>
<path d="M42.8165 24.3924H41.154C40.9242 24.3924 40.7383 24.165 40.7383 23.8839C40.7383 23.8171 40.749 23.751 40.7699 23.6893C40.7908 23.6276 40.8214 23.5715 40.86 23.5243C40.8986 23.4771 40.9444 23.4396 40.9949 23.4141C41.0453 23.3886 41.0994 23.3754 41.154 23.3755H42.8165C42.8711 23.3755 42.9251 23.3886 42.9756 23.4141C43.026 23.4397 43.0719 23.4771 43.1105 23.5243C43.1491 23.5715 43.1797 23.6276 43.2005 23.6893C43.2214 23.751 43.2322 23.8171 43.2321 23.8839C43.2322 23.9507 43.2214 24.0168 43.2006 24.0785C43.1797 24.1403 43.1491 24.1963 43.1105 24.2435C43.0719 24.2908 43.026 24.3282 42.9756 24.3538C42.9252 24.3793 42.8711 24.3924 42.8165 24.3924Z" fill="black"/>
</g>
<defs>
<clipPath id="clip0_23_41">
<rect width="55.6818" height="71.8064" fill="white" transform="translate(0 0.387207)"/>
</clipPath>
</defs>
</svg>
