<svg width="90" height="93" viewBox="0 0 90 93" fill="none" xmlns="http://www.w3.org/2000/svg">
<path d="M45 86.5524C34.5571 86.5524 24.5419 82.2969 17.1577 74.7221C9.77343 67.1473 5.625 56.8737 5.625 46.1613C5.625 35.4489 9.77343 25.1753 17.1577 17.6004C24.5419 10.0256 34.5571 5.77016 45 5.77016C55.4429 5.77016 65.4581 10.0256 72.8423 17.6004C80.2266 25.1753 84.375 35.4489 84.375 46.1613C84.375 56.8737 80.2266 67.1473 72.8423 74.7221C65.4581 82.2969 55.4429 86.5524 45 86.5524ZM45 92.3226C56.9347 92.3226 68.3807 87.4592 76.8198 78.8023C85.2589 70.1453 90 58.404 90 46.1613C90 33.9186 85.2589 22.1772 76.8198 13.5203C68.3807 4.86341 56.9347 0 45 0C33.0653 0 21.6193 4.86341 13.1802 13.5203C4.74106 22.1772 0 33.9186 0 46.1613C0 58.404 4.74106 70.1453 13.1802 78.8023C21.6193 87.4592 33.0653 92.3226 45 92.3226Z" fill="black"/>
<path d="M52.5797 37.4705L38.8397 39.2369L38.3477 41.5758L41.0477 42.0866C42.8117 42.5175 43.1597 43.1699 42.7757 44.9732L38.3477 66.3182C37.1837 71.8391 38.9777 74.4365 43.1957 74.4365C46.4657 74.4365 50.2637 72.8854 51.9857 70.7559L52.5137 68.1954C51.3137 69.2787 49.5617 69.7095 48.3977 69.7095C46.7477 69.7095 46.1477 68.5217 46.5737 66.429L52.5797 37.4705ZM52.9997 24.6192C52.9997 26.2516 52.3676 27.8171 51.2424 28.9713C50.1171 30.1256 48.591 30.774 46.9997 30.774C45.4084 30.774 43.8823 30.1256 42.7571 28.9713C41.6319 27.8171 40.9997 26.2516 40.9997 24.6192C40.9997 22.9868 41.6319 21.4213 42.7571 20.2671C43.8823 19.1128 45.4084 18.4644 46.9997 18.4644C48.591 18.4644 50.1171 19.1128 51.2424 20.2671C52.3676 21.4213 52.9997 22.9868 52.9997 24.6192Z" fill="black"/>
</svg>
