<svg width="217" height="197" viewBox="0 0 217 197" fill="none" xmlns="http://www.w3.org/2000/svg">
<path d="M5.15778 92.0493C7.60912 58.2529 27.8261 25.4222 61.4327 6.96883L89.6753 58.4033C76.2326 65.7847 68.1899 78.9247 67.2094 92.4432L5.14421 92.0567M155.575 178.417C144.572 158.31 138.401 147.041 127.332 126.983C113.896 134.36 98.4765 134.152 86.5462 127.734L53.5931 180.253C83.423 196.312 121.975 196.867 155.575 178.417ZM103.797 84.1205C108.894 81.3213 115.134 82.8901 117.734 87.6247C120.334 92.3592 118.309 98.4661 113.211 101.265C108.113 104.065 101.873 102.496 99.2736 97.7612C96.6739 93.0267 98.6988 86.9197 103.797 84.1205ZM163.447 5.11807C178.864 13.4239 191.948 25.8794 200.805 42.0101C209.661 58.1383 213.15 75.8598 211.886 93.3238L149.9 92.9398C150.405 85.954 148.971 78.8783 145.429 72.4275C141.88 65.9657 136.637 60.9788 130.46 57.6567L163.447 5.11807Z" stroke="#EAE0D5" stroke-width="8.53333" stroke-linecap="round" stroke-linejoin="round"/>
</svg>
