<svg xmlns="http://www.w3.org/2000/svg" width="424" height="476" fill="none"><path fill="#000" fill-rule="evenodd" d="M64.651 370.334c1.242.045 2.694.072 4.384.07 13.478-.01 25.968 3.034 36.536 10.028 10.598 7.015 17.119 16.581 21.049 25.939 5.546 13.204 6.596 28.019 6.79 38.711 2.296.626 5.476 1.307 9.746 1.922 17.249 2.481 41.385 2.524 69.204 2.5 27.82-.023 51.955-.104 69.2-2.614 4.269-.621 7.448-1.308 9.742-1.936.177-10.694 1.204-25.51 6.727-38.725 3.915-9.363 10.42-18.94 21.008-25.971 10.556-7.011 23.041-10.077 36.517-10.087 1.691-.002 3.144-.032 4.384-.078.005-1.205-.006-2.563-.033-4.1-.039-2.257-.12-5.014-.213-8.144-.192-6.586-.434-14.821-.441-23.507-.023-28.388 10.395-44.828 17.985-56.804 1.593-2.514 3.061-4.832 4.283-7.023 6.696-12.009 15.585-32.722 15.539-88.979-.043-51.716-22.264-89.42-55.736-114.897-34.205-26.034-81.109-39.84-129.308-39.801S116.934 40.76 82.772 66.85c-33.43 25.53-55.59 63.272-55.548 114.988.047 56.257 8.969 76.957 15.684 88.954 1.225 2.189 2.698 4.505 4.295 7.017 7.61 11.964 18.055 28.387 18.078 56.773.007 8.687-.22 16.923-.403 23.51a729 729 0 0 0-.199 8.143 209 209 0 0 0-.028 4.099m-26.163-13.697c-.904 32.309-1.125 40.211 30.57 40.184 37.931-.03 37.959 33.919 37.978 56.553s51.158 22.591 105.345 22.547c54.189-.044 105.329-.086 105.31-22.72-.018-22.633-.046-56.583 37.886-56.614 31.694-.026 31.461-7.927 30.502-40.234-.188-6.357-.404-13.66-.411-22.032-.017-20.148 5.913-29.673 13.08-41.185 10.949-17.586 24.784-39.809 24.726-111.621C423.277-60.174.609-59.828.808 181.861c.059 71.812 13.931 94.013 24.908 111.58 7.187 11.5 13.131 21.016 13.149 41.164.006 8.372-.198 15.675-.377 22.032" clip-rule="evenodd"/><path fill="#000" d="M188.738 275.319c.031 34.737-26.226 62.916-58.647 62.942-32.422.023-58.729-28.116-58.759-62.854-.03-34.736 26.227-62.916 58.648-62.94s58.729 28.115 58.758 62.852M353.103 275.164c.026 34.738-26.235 62.92-58.656 62.949-32.421.027-58.725-28.11-58.752-62.847s26.233-62.919 58.655-62.947 58.725 28.109 58.753 62.845M251.944 400.282c.009 11.816-8.867 22.78-21.033 22.791-8.441.006-14.71-4.905-18.583-11.875-3.862 6.977-10.121 11.898-18.565 11.905-12.168.009-21.06-10.942-21.069-22.755-.021-25.292 39.589-43.303 39.589-43.303s39.639 16.858 39.661 43.237"/></svg>