<svg width="256" height="256" viewBox="0 0 256 256" fill="none" xmlns="http://www.w3.org/2000/svg">
<path d="M136.592 32.146C136.592 19.6567 146.716 9.53271 159.205 9.53271C171.694 9.53271 181.818 19.6567 181.818 32.146C181.818 44.6354 171.694 54.7594 159.205 54.7594C146.716 54.7594 136.592 44.6354 136.592 32.146ZM53.7604 83.6268H38.4004V249.173H53.7604V190.293H112.64V249.173H128V174.933H53.7604V83.6268ZM218.201 98.4321C216.953 92.917 211.477 89.4559 205.952 90.706L167.703 99.3657C167.795 99.5073 137.379 52.5236 137.379 52.5236C133.12 46.5068 128.535 42.0336 120.943 42.0336C109.05 42.0336 102.507 52.9076 98.3931 61.1201C97.8419 62.2184 65.6388 128 65.6388 128C61.3798 138.045 62.5634 148.679 67.6271 156.48C71.5737 162.56 79.2537 166.4 87.3203 166.4H148.48V237.227C148.48 243.825 153.829 249.173 160.427 249.173C167.025 249.173 172.374 243.825 172.374 237.227V154.453C172.374 147.855 167.025 142.507 160.427 142.507H116.27L134.6 85.883L154.387 116.492C156.658 119.893 160.241 121.895 165.248 120.92L203.094 112.352V249.173H211.627V110.341C216.459 108.638 219.36 103.552 218.201 98.4321Z" fill="black"/>
</svg>
