<svg width="256" height="256" viewBox="0 0 256 256" fill="none" xmlns="http://www.w3.org/2000/svg">
<path d="M184.987 71.8473C186.395 71.0264 188.064 70.7753 189.651 71.1456C192.769 71.8362 193.804 73.7029 194.201 74.7577C195.382 77.9125 194.335 83.1152 192.577 86.1316C191.057 89.0846 188.691 91.5173 185.782 93.119C183.695 94.0389 181.392 94.3535 179.135 94.0267L178.582 95.0036C177.759 96.4567 175.876 98.9764 175.876 98.9764C175.565 99.3753 175.252 99.7705 174.936 100.162L175.14 101.482C175.534 103.465 176.183 106.687 176.576 108.67C177.02 110.353 177.765 111.943 178.773 113.362C180.518 116.038 183.706 117.474 187.202 118.704L186.799 119.054C177.15 127.216 165.153 132.093 152.546 132.978C147.79 133.405 142.998 132.815 138.487 131.25C133.806 129.527 129.86 126.247 127.312 121.96C128.883 121.252 130.389 120.576 131.592 120.029C133.06 119.396 134.343 118.4 135.32 117.134C128.027 116.356 121.837 113.373 116.112 108.008C109.475 101.786 107.03 92.5155 106.605 82.4186C106.36 76.5962 106.231 70.2815 105.826 63.9436C105.826 63.9436 96.4413 39.1992 146.775 39.1992C197.108 39.1992 184.987 71.8473 184.987 71.8473Z" fill="white"/>
<path d="M149.727 249.791H129.002C127.872 249.79 126.753 249.566 125.71 249.13C124.667 248.695 123.72 248.057 122.925 247.254C119.132 243.432 112.11 236.704 110.275 237.332C103.189 239.752 94.8043 238.587 89.0716 233.341C85.6214 230.322 83.2538 226.258 82.3304 221.767C80.5534 212.707 81.0329 203.471 82.9885 190.346C85.6775 172.209 88.1596 161.66 92.0897 148.939C93.4409 145.257 95.2467 141.758 97.4651 138.523C99.7761 135.657 102.524 133.174 105.609 131.163C109.824 128.49 114.954 126.343 120.375 124.273L126.594 121.795L127.101 121.594L127.187 121.748C129.726 126.136 133.722 129.497 138.481 131.246C142.992 132.811 147.784 133.401 152.54 132.974C165.147 132.089 177.144 127.212 186.793 119.05L187.258 118.647L187.771 118.202C195.002 120.007 202.092 122.337 208.983 125.176C216.156 128.167 222.471 131.803 227.835 137.427C232.657 142.482 237.883 151.963 241.425 163.08C248.999 186.845 253.951 212.074 253.948 223.424C253.948 226.211 253.121 232.85 252.212 235.531C250.645 240.153 248.936 245.034 242.575 249.79L149.727 249.791Z" fill="white"/>
<path d="M48.1795 79.9513C50.9352 80.2598 53.658 80.8127 56.3157 81.6035C62.7518 83.9002 66.4109 88.6037 66.3237 95.4356C66.2912 97.9758 65.7545 101.545 63.5629 103.963C62.668 104.95 61.6492 105.957 60.5056 107.095C60.0248 107.584 59.7422 108.233 59.7122 108.918C59.6822 109.603 59.907 110.275 60.3432 110.804C63.2455 114.268 64.7236 118.706 64.4784 123.219C64.3613 125.33 63.0946 127.262 62.1791 128.629C61.7722 129.249 61.2912 129.817 60.7466 130.321C60.4463 130.594 60.2097 130.93 60.0536 131.304C59.8976 131.679 59.8258 132.084 59.8435 132.489C59.8612 132.895 59.9679 133.292 60.156 133.651C60.3442 134.011 60.6091 134.325 60.9321 134.571C64.0689 136.922 67.5571 140.537 67.7366 143.271C67.9075 145.817 67.0084 147.928 65.2074 148.656C64.1233 149.011 62.9507 148.986 61.8825 148.586C56.6157 146.754 51.0061 144.3 38.1382 143.953C38.0783 143.953 38.0168 143.947 37.957 143.941C31.0747 143.288 23.5514 142.338 20.4854 134.198C19.4045 131.207 19.1424 127.981 19.7264 124.855C19.8632 124.068 20.0239 123.255 20.1974 122.441C21.2855 117.352 19.6452 112.976 13.9365 111.505C13.0348 111.273 11.3723 110.838 11.0227 110.743C3.39085 108.71 -0.312692 102.267 0.020652 94.2193C0.0965871 91.5709 0.951631 89.0037 2.47885 86.8387C3.97697 84.753 5.97212 83.0742 8.28332 81.9548C18.4555 78.0213 34.3774 78.6316 48.1795 79.9513Z" fill="#C6C6C6"/>
<path d="M115.787 231.891C112.06 235.006 107.315 236.641 102.459 236.481C99.9765 236.436 97.5277 235.895 95.2566 234.89C92.9856 233.886 90.9381 232.437 89.2342 230.631C87.3066 228.644 85.8402 226.257 84.9392 223.639C84.2105 221.224 83.7518 218.735 83.5716 216.219C83.1184 210.717 83.2086 205.184 83.8408 199.7C85.0714 187.746 87.1178 175.891 89.9658 164.217C91.1437 159.362 92.4802 154.547 93.9754 149.772C94.7245 147.558 95.689 145.423 96.855 143.398C97.9492 141.288 99.3349 139.342 100.971 137.617C107.831 130.589 117.462 127.623 126.373 124.078L127.471 123.641C127.987 123.482 128.423 123.133 128.689 122.664C128.956 122.194 129.033 121.641 128.905 121.117C128.757 120.594 128.409 120.151 127.936 119.883C127.464 119.615 126.905 119.544 126.381 119.684C117.724 123.129 108.354 125.978 101.07 131.969C98.7386 133.816 96.6963 136.001 95.0113 138.452C93.578 140.671 92.3306 143.006 91.2821 145.431C89.206 150.132 87.9983 155.309 86.7204 160.277C83.6499 172.451 81.4054 184.818 80.0023 197.295C79.2127 203.221 79.004 209.211 79.3792 215.178C79.5545 217.911 79.9521 220.624 80.5681 223.292C81.7179 227.621 84.0913 231.527 87.4041 234.541C90.7169 237.556 94.8285 239.552 99.2465 240.289C104.778 241.142 110.434 240.08 115.279 237.278C116.487 236.552 117.628 235.72 118.689 234.792C120.691 233.063 117.778 230.171 115.788 231.891H115.787Z" fill="#211715"/>
<path d="M115.161 159.093C117.256 164.222 119.373 169.936 117.495 175.148C116.865 176.899 115.811 178.47 115.115 180.196C114.064 182.801 114.252 184.656 114.059 187.462C113.917 189.551 114.029 191.275 113.471 193.063C113.213 194.087 112.728 195.041 112.053 195.853C111.377 196.666 110.527 197.316 109.567 197.756C107.902 198.256 106.192 198.593 104.462 198.762C99.6255 199.376 95.6809 198.952 92.3158 195.931C91.5195 195.216 90.9534 194.28 90.6892 193.242C90.4249 192.205 90.4743 191.112 90.8312 190.103C90.9867 189.668 91.1184 189.248 91.2303 188.843C91.938 186.292 92.0774 183.562 89.9482 181.985C87.6647 180.336 85.8087 178.165 84.5352 175.653C83.6745 173.74 83.188 171.68 83.1018 169.584C83.0283 165.282 83.2728 162.191 83.2001 157.889L85.5182 148.781L86.3729 145.972C87.0366 143.695 88.2807 141.628 89.9833 139.976C90.8385 139.159 91.8541 138.527 92.9657 138.122C94.0773 137.717 95.2609 137.547 96.4416 137.622C96.9402 137.759 97.394 138.024 97.7579 138.392C98.103 138.773 98.3633 139.224 98.5216 139.714C98.6798 140.204 98.7324 140.721 98.6759 141.233L101.867 148.021C102.144 146.4 102.875 144.891 103.978 143.671C105.217 142.352 107.603 142.42 109.011 143.368C110.635 144.46 110.708 145.958 111.253 147.965C112.307 151.788 113.614 155.537 115.164 159.186" fill="white"/>
<path d="M81.1514 157.888C81.2548 164.909 79.7907 172.516 83.9669 178.685C84.8754 180.049 85.9562 181.289 87.1824 182.376C88.208 183.272 89.4636 183.864 89.6269 185.336C89.7978 186.913 89.173 188.383 88.7517 189.866C88.2516 191.685 88.4466 193.626 89.2987 195.31C90.7517 198.24 94.3416 200.127 97.4383 200.716C100.87 201.222 104.365 201.091 107.75 200.33C109.443 200.157 111.049 199.495 112.372 198.425C113.695 197.356 114.679 195.924 115.202 194.304C116.506 190.946 115.916 187.115 116.332 183.601C116.681 181.701 117.366 179.88 118.356 178.222C119.41 176.238 120.05 174.06 120.236 171.822C120.566 167.227 118.84 162.726 117.139 158.55C116.98 158.035 116.63 157.6 116.161 157.333C115.692 157.067 115.139 156.99 114.615 157.118C114.092 157.265 113.649 157.613 113.381 158.085C113.113 158.558 113.041 159.116 113.182 159.641C114.539 162.974 115.997 166.489 116.153 170.127C116.256 171.808 115.979 173.49 115.343 175.05C114.652 176.674 113.708 178.175 113.069 179.829C111.88 182.906 112.054 186.435 111.905 189.679C111.793 192.133 110.999 195.19 108.509 195.949C105.636 196.791 102.637 197.113 99.6512 196.902C97.3434 196.731 94.1698 195.705 92.9843 193.52C92.2595 192.178 92.715 191.041 93.1159 189.692C93.5913 188.242 93.7941 186.716 93.7142 185.192C93.6246 183.597 92.9684 182.087 91.8637 180.933C90.7953 179.87 89.5252 179.072 88.514 177.927C86.4976 175.682 85.3125 172.814 85.1567 169.8C84.972 165.838 85.3062 161.851 85.2481 157.89C85.2088 155.253 81.1061 155.245 81.1454 157.89L81.1514 157.888Z" fill="#211715"/>
<path d="M86.1935 162.473C90.3953 161.573 94.6915 161.191 98.9862 161.336C100.712 161.347 102.163 161.515 103.167 162.721C103.721 163.388 104.385 164.345 104 165.164C103.763 165.543 103.429 165.853 103.033 166.06C102.421 166.474 101.82 166.884 101.245 167.349C100.864 167.735 100.65 168.257 100.65 168.8C100.65 169.343 100.864 169.864 101.245 170.25C101.636 170.623 102.155 170.832 102.696 170.832C103.236 170.832 103.756 170.623 104.146 170.25C105.118 169.633 106.034 168.931 106.881 168.153C107.397 167.557 107.776 166.856 107.99 166.097C108.205 165.339 108.25 164.544 108.122 163.766C107.887 162.592 107.395 161.485 106.68 160.525C105.966 159.564 105.048 158.774 103.992 158.21C102.254 157.46 100.365 157.126 98.4759 157.235C96.481 157.246 94.4852 157.344 92.4928 157.492C90.0033 157.627 87.5294 157.971 85.0969 158.517C82.5327 159.153 83.6207 163.111 86.1875 162.474L86.1935 162.473Z" fill="#211715"/>
<path d="M91.4122 171.081C93.3396 170.568 95.2499 169.941 97.2244 169.614C97.3534 169.593 97.4808 169.571 97.6133 169.554C97.5731 169.559 97.3115 169.582 97.5526 169.567C97.7782 169.553 98.003 169.523 98.2287 169.509C98.7101 169.48 99.1929 169.482 99.674 169.516C99.8022 169.525 99.9304 169.54 100.059 169.552C100.302 169.575 100.031 169.552 99.9945 169.545C100.173 169.582 100.357 169.63 100.536 169.656C100.948 169.715 100.195 169.485 100.481 169.627C100.538 169.666 100.597 169.702 100.658 169.735C100.609 169.747 100.294 169.393 100.487 169.604C100.568 169.696 100.653 169.784 100.743 169.867C100.883 169.986 100.58 169.685 100.587 169.663C100.624 169.726 100.664 169.787 100.707 169.846C100.768 169.959 100.822 170.086 100.893 170.192C101.001 170.354 100.8 169.974 100.8 169.965C100.823 170.061 100.855 170.154 100.897 170.242C100.94 170.376 100.977 170.51 101.008 170.647C101.031 170.748 101.088 171.203 101.059 170.856C101.03 170.509 101.066 170.981 101.071 171.077C101.082 171.248 101.084 171.412 101.081 171.579C101.081 171.725 101.064 171.871 101.055 172.017C101.029 172.482 101.136 171.675 101.055 172.024C100.987 172.314 100.878 172.606 100.817 172.895C100.776 173.091 100.908 172.681 100.914 172.675C100.875 172.74 100.842 172.809 100.815 172.88C100.755 172.996 100.683 173.104 100.618 173.217C100.408 173.58 100.886 172.976 100.643 173.183C100.46 173.341 100.301 173.546 100.13 173.718C99.8165 174.032 99.4888 174.331 99.1475 174.615C99.0672 174.682 98.9834 174.746 98.9039 174.813C99.0201 174.714 99.1424 174.636 98.9501 174.777C98.7791 174.901 98.6159 175.023 98.4466 175.142C97.6269 175.716 96.7765 176.246 95.9431 176.799C95.4733 177.074 95.1318 177.524 94.9938 178.05C94.8558 178.576 94.9326 179.136 95.2072 179.606C95.4818 180.076 95.9318 180.417 96.4583 180.555C96.9847 180.693 97.5443 180.616 98.0141 180.342C99.7286 179.312 101.345 178.127 102.844 176.802C103.504 176.222 104.05 175.524 104.455 174.745C104.857 173.865 105.098 172.92 105.166 171.954C105.331 170.211 104.824 168.471 103.747 167.09C102.431 165.487 100.167 165.295 98.2287 165.406C95.5425 165.71 92.8942 166.286 90.3241 167.124C89.7995 167.269 89.3537 167.616 89.085 168.089C88.8163 168.563 88.7465 169.123 88.8912 169.648C89.0358 170.172 89.3829 170.618 89.8562 170.887C90.3295 171.156 90.8901 171.225 91.4148 171.081H91.4122Z" fill="#211715"/>
<path d="M100.728 141.23C100.71 139.122 99.9816 137.111 98.0294 136.056C96.0378 134.979 93.3933 135.667 91.4531 136.549C87.8247 138.198 85.517 141.819 84.3699 145.511C84.0879 146.417 83.8186 147.327 83.5425 148.235C83.3979 148.759 83.4676 149.32 83.7364 149.793C84.0051 150.266 84.4508 150.614 84.9755 150.758C85.5002 150.903 86.0608 150.833 86.5341 150.564C87.0073 150.296 87.3545 149.85 87.4991 149.325C87.7666 148.444 88.0299 147.561 88.3017 146.682C88.4881 146.039 88.7259 145.412 89.0128 144.807C89.2295 144.355 89.4698 143.915 89.7325 143.487C89.8465 143.306 89.9633 143.127 90.0829 142.95C90.1633 142.832 90.2462 142.716 90.3317 142.601C90.2265 142.733 90.2505 142.703 90.4052 142.516C90.7239 142.133 91.0665 141.77 91.4308 141.43C91.4924 141.374 92.0411 140.928 91.8479 141.069C92.0189 140.942 92.2009 140.822 92.383 140.707C92.6257 140.553 92.8756 140.411 93.1326 140.28C93.26 140.215 93.389 140.152 93.5207 140.094C93.3924 140.146 93.395 140.147 93.5266 140.094C94.0258 139.902 94.5429 139.761 95.0703 139.673C94.719 139.73 95.3609 139.652 95.3711 139.651C95.4421 139.651 96.2259 139.664 96.2259 139.651C96.2182 139.677 95.4506 139.42 96.031 139.639C96.1062 139.681 96.1797 139.724 96.2507 139.777C96.0638 139.62 96.0509 139.611 96.2122 139.748C96.291 139.819 96.3652 139.895 96.4344 139.975C96.3039 139.796 96.3022 139.802 96.4293 139.992C96.69 140.363 96.3823 139.685 96.4994 140.119C96.5267 140.221 96.6302 140.912 96.5908 140.438C96.6131 140.701 96.6208 140.963 96.6225 141.227C96.6225 141.771 96.8386 142.293 97.2233 142.677C97.608 143.062 98.1298 143.278 98.6738 143.278C99.2179 143.278 99.7396 143.062 100.124 142.677C100.509 142.293 100.725 141.771 100.725 141.227L100.728 141.23Z" fill="#211715"/>
<path d="M77.5925 164.638L113.201 143.526C113.611 143.286 113.91 142.893 114.031 142.433C114.151 141.972 114.085 141.483 113.845 141.072L111.556 137.154C111.316 136.743 110.923 136.445 110.462 136.324C110.002 136.203 109.513 136.27 109.102 136.51L73.4941 157.621C72.867 157.988 72.411 158.588 72.2266 159.291C72.0421 159.993 72.1441 160.74 72.5103 161.368L73.8488 163.655C74.0299 163.966 74.2705 164.237 74.5567 164.455C74.8429 164.672 75.1692 164.831 75.5169 164.923C75.8646 165.014 76.2269 165.036 76.5831 164.987C76.9392 164.938 77.2822 164.819 77.5925 164.638Z" fill="white"/>
<path d="M110.992 136.558C110.712 136.375 110.388 136.273 110.054 136.264C109.72 136.256 109.39 136.34 109.102 136.508L99.6143 142.049C100.876 144.21 102.43 146.868 103.713 149.065L113.2 143.525C113.611 143.285 113.909 142.891 114.03 142.431C114.151 141.971 114.084 141.482 113.845 141.071L111.556 137.153C111.417 136.913 111.223 136.71 110.992 136.558Z" fill="#FEBE69"/>
<path d="M72.1487 160.252C72.1874 160.646 72.3107 161.026 72.5103 161.367L73.8488 163.655C74.0299 163.965 74.2705 164.237 74.5569 164.455C74.8432 164.673 75.1697 164.832 75.5176 164.923C75.8655 165.014 76.228 165.036 76.5843 164.987C76.9407 164.938 77.2839 164.819 77.5942 164.638L80.82 162.757C79.4524 160.418 78.0848 158.079 76.7173 155.741L73.4915 157.621C73.0397 157.886 72.6732 158.274 72.4352 158.74C72.1972 159.206 72.0978 159.731 72.1487 160.252Z" fill="#C6C6C6"/>
<path d="M105.488 148.03L101.385 141.014C101.251 140.779 101.071 140.574 100.856 140.409C100.641 140.244 100.396 140.123 100.135 140.054C99.873 139.984 99.6003 139.967 99.3321 140.003C99.0639 140.04 98.8056 140.129 98.5719 140.265C98.3383 140.402 98.134 140.583 97.9707 140.799C97.8075 141.015 97.6886 141.261 97.6209 141.523C97.5532 141.785 97.538 142.058 97.5762 142.326C97.6144 142.594 97.7052 142.851 97.8434 143.084L101.946 150.1C102.221 150.57 102.671 150.912 103.197 151.05C103.723 151.188 104.283 151.111 104.753 150.837C105.222 150.562 105.564 150.112 105.702 149.586C105.84 149.06 105.763 148.5 105.488 148.03Z" fill="#211715"/>
<path d="M78.6282 166.409L95.0561 156.665C101.356 152.93 107.715 149.278 113.962 145.455C114.44 145.204 114.861 144.858 115.202 144.438C115.542 144.019 115.793 143.535 115.941 143.015C116.088 142.496 116.129 141.952 116.059 141.416C115.99 140.88 115.813 140.364 115.539 139.899C115.038 138.981 114.481 138.088 113.952 137.185C113.489 136.137 112.725 135.251 111.758 134.638C109.221 133.318 106.373 135.739 104.269 136.986L81.2044 150.661L73.2015 155.406C71.8915 156.029 70.8673 157.126 70.3365 158.476C70.1185 159.227 70.0699 160.017 70.194 160.788C70.3182 161.56 70.612 162.295 71.0544 162.939C71.5489 163.972 72.1884 164.928 72.9537 165.779C73.7155 166.463 74.6725 166.891 75.6903 167.004C76.7081 167.116 77.7354 166.907 78.6282 166.405C80.977 165.199 78.9034 161.657 76.5572 162.863C75.8358 163.234 75.5119 162.436 75.2076 161.913C74.9264 161.432 74.158 160.545 74.1725 159.969C74.1862 159.417 75.0178 159.099 75.423 158.858L82.9557 154.392L104.813 141.433L108.432 139.287C108.758 139.093 109.911 138.662 110.085 138.307C110.127 138.222 110.412 138.327 109.914 138.307C109.976 138.307 109.805 138.152 109.789 138.198C109.773 138.243 109.972 138.505 109.994 138.548C110.468 139.45 111.027 140.317 111.541 141.198C111.639 141.364 111.855 141.941 112.031 142.036C112.283 142.173 111.86 141.651 112.158 141.757C112.103 141.737 111.822 141.957 111.772 141.986L94.1757 152.419C88.4089 155.838 82.5788 159.172 76.8666 162.682C76.764 162.745 76.6589 162.805 76.5555 162.867C74.2879 164.212 76.3495 167.76 78.6282 166.409Z" fill="#211715"/>
<path d="M74.9473 156.772L79.05 163.789C79.186 164.021 79.3665 164.225 79.5811 164.388C79.7957 164.551 80.0403 164.67 80.301 164.738C80.5616 164.806 80.8331 164.823 81.1 164.786C81.3669 164.749 81.624 164.66 81.8565 164.524C82.0891 164.388 82.2926 164.208 82.4554 163.993C82.6183 163.779 82.7372 163.534 82.8055 163.273C82.8738 163.013 82.8901 162.741 82.8535 162.474C82.8169 162.208 82.728 161.95 82.592 161.718L78.4893 154.701C78.2147 154.232 77.7647 153.89 77.2383 153.752C76.7119 153.614 76.1522 153.691 75.6824 153.966C75.2126 154.24 74.8711 154.69 74.7331 155.217C74.5951 155.743 74.6727 156.303 74.9473 156.772Z" fill="#211715"/>
<path d="M103.066 155.429C101.885 153.369 101.431 150.972 101.777 148.623C101.969 146.78 102.739 145.044 103.978 143.665C105.217 142.346 107.603 142.414 109.011 143.362C110.635 144.454 110.708 145.952 111.253 147.96C112.271 151.764 113.577 155.485 115.161 159.09" fill="white"/>
<path d="M104.459 153.599C104.25 153.116 104.07 152.622 103.918 152.118C103.852 151.886 103.805 151.652 103.752 151.416C103.713 151.179 103.712 151.179 103.748 151.416C103.734 151.288 103.724 151.16 103.717 151.03C103.631 149.797 103.776 148.56 104.144 147.38C104.333 146.795 104.604 146.239 104.95 145.73C105.099 145.509 105.261 145.335 105.432 145.122C105.615 144.958 105.633 144.931 105.489 145.041C105.602 144.963 105.721 144.894 105.844 144.832C105.575 144.961 106.249 144.729 106.345 144.714C106.015 144.766 106.778 144.724 106.864 144.727C107.165 144.757 107.457 144.844 107.725 144.983C107.864 145.033 107.988 145.117 108.085 145.228C108.185 145.321 108.28 145.419 108.369 145.522C108.251 145.364 108.259 145.383 108.392 145.578C108.459 145.687 108.52 145.799 108.577 145.913C108.504 145.715 108.51 145.731 108.596 145.959C108.682 146.215 108.767 146.472 108.834 146.735C109.202 148.102 109.535 149.47 109.945 150.826C110.876 153.847 111.958 156.818 113.187 159.73C113.347 160.245 113.697 160.68 114.166 160.946C114.635 161.212 115.187 161.289 115.711 161.163C116.234 161.015 116.678 160.668 116.946 160.195C117.214 159.723 117.285 159.164 117.144 158.639C116.02 155.955 114.997 153.228 114.123 150.451C113.711 149.143 113.323 147.826 112.999 146.494C112.798 145.383 112.401 144.318 111.827 143.346C111.085 142.287 110.041 141.477 108.83 141.023C107.62 140.568 106.3 140.491 105.045 140.8C102.298 141.445 100.631 144.366 100.007 146.922C99.3341 149.498 99.5082 152.222 100.504 154.691C100.663 155.205 101.013 155.64 101.482 155.906C101.951 156.172 102.503 156.25 103.027 156.123C103.55 155.976 103.993 155.628 104.262 155.156C104.53 154.684 104.601 154.125 104.46 153.6L104.459 153.599Z" fill="#211715"/>
<path d="M243.609 251.563C248.149 248.36 251.552 243.796 253.327 238.532C254.818 234.283 255.69 229.843 255.917 225.346C256.076 221.645 255.879 217.937 255.329 214.273C254.687 209.007 253.791 203.775 252.749 198.573C250.278 185.991 247.032 173.574 243.031 161.392C239.544 150.904 234.483 140.066 225.899 132.786C220.685 128.365 214.653 125.276 208.35 122.715C201.695 120.066 194.871 117.864 187.922 116.125C185.364 115.464 184.272 119.421 186.831 120.081C192.705 121.558 198.494 123.354 204.172 125.46C209.677 127.409 214.923 130.021 219.797 133.238C223.852 136.013 227.348 139.528 230.101 143.598C233.152 148.235 235.673 153.201 237.615 158.401C239.909 164.384 241.647 170.609 243.342 176.785C244.975 182.735 246.451 188.726 247.769 194.757C249.711 203.7 251.603 212.898 251.871 222.077C251.91 224.174 251.791 226.27 251.515 228.349C251.302 230.598 250.872 232.82 250.233 234.986C249.553 237.232 248.634 239.399 247.492 241.45C245.959 244.01 243.936 246.243 241.538 248.02C241.081 248.306 240.75 248.756 240.614 249.278C240.477 249.799 240.544 250.353 240.802 250.827C241.079 251.294 241.529 251.633 242.054 251.77C242.579 251.908 243.138 251.833 243.609 251.563H243.609Z" fill="#211715"/>
<path d="M128.339 123.732C129.869 123.043 131.428 122.396 132.935 121.653C134.537 120.862 135.932 119.706 137.007 118.278C137.145 118.042 137.234 117.78 137.27 117.509C137.305 117.238 137.286 116.962 137.214 116.698C137.068 116.184 136.732 115.746 136.274 115.472C136.037 115.335 135.775 115.246 135.504 115.21C135.233 115.175 134.957 115.194 134.693 115.265C134.192 115.436 133.761 115.766 133.467 116.206C133.526 116.128 133.728 115.889 133.552 116.091C133.496 116.156 133.441 116.222 133.382 116.285C133.252 116.429 133.117 116.566 132.976 116.7C132.852 116.818 132.72 116.932 132.593 117.042C132.511 117.11 132.422 117.173 132.343 117.245C132.415 117.18 132.673 117.001 132.452 117.16C131.884 117.559 131.283 117.911 130.657 118.211C129.204 118.895 127.733 119.531 126.271 120.19C125.81 120.461 125.473 120.901 125.331 121.416C125.222 121.809 125.233 122.226 125.363 122.613C125.492 123 125.735 123.34 126.058 123.589C126.382 123.837 126.772 123.984 127.179 124.009C127.587 124.035 127.992 123.939 128.345 123.732H128.339Z" fill="#211715"/>
<path d="M173.156 102.027C173.525 103.884 173.895 105.741 174.268 107.597C174.657 109.781 175.446 111.874 176.595 113.772C178.903 117.505 182.64 119.262 186.647 120.682C186.906 120.754 187.178 120.774 187.445 120.741C187.712 120.707 187.971 120.622 188.205 120.489C188.439 120.356 188.645 120.178 188.811 119.965C188.976 119.753 189.098 119.51 189.17 119.25C189.241 118.99 189.261 118.719 189.228 118.451C189.195 118.184 189.109 117.926 188.976 117.692C188.843 117.457 188.665 117.252 188.453 117.086C188.24 116.92 187.997 116.798 187.737 116.727C186.096 116.189 184.516 115.478 183.026 114.605C181.677 113.762 180.572 112.58 179.822 111.177C178.976 109.602 178.409 107.892 178.147 106.124C177.801 104.395 177.455 102.666 177.11 100.936C176.966 100.412 176.619 99.966 176.145 99.6973C175.672 99.4286 175.111 99.3588 174.587 99.5035C174.062 99.6481 173.616 99.9952 173.348 100.468C173.079 100.942 173.009 101.502 173.154 102.027H173.156Z" fill="#211715"/>
<path d="M162.528 47.8846C167.117 50.1711 170.816 53.9196 173.041 58.5396C174.401 61.4172 175.347 64.473 175.85 67.616L184.988 71.8477C186.396 71.0268 188.065 70.7758 189.652 71.146C192.767 71.8358 193.804 73.6991 194.2 74.7547C197.017 69.4289 199.414 63.6432 199.992 57.4695C201.71 39.0757 197.757 31.8456 188.515 22.3093C180.955 11.1184 169.454 7.34132 157.899 6.39855C146.998 5.34301 136.05 7.88506 126.729 13.6364C123.282 15.8491 120.161 18.534 117.459 21.6127C111.476 26.4454 106.108 37.6304 105.505 49.1085C105.15 53.9541 105.267 58.8227 105.853 63.6458C107.208 62.4491 108.195 61.5748 108.195 61.5748C113.434 56.9361 122.588 50.0282 128.838 47.5375C129.571 47.2461 130.447 47.7657 130.655 48.8666C130.829 49.7251 130.829 50.61 130.655 51.4684C130.607 51.7262 130.631 51.9919 130.722 52.2374C130.814 52.4828 130.971 52.6986 131.176 52.8618C131.381 53.0249 131.627 53.1292 131.887 53.1635C132.147 53.1978 132.411 53.1608 132.651 53.0565C137.122 51.1573 145.13 47.2657 150.727 45.5349C152.696 45.3175 154.687 45.4567 156.606 45.946C158.616 46.4768 160.593 47.1241 162.528 47.8846Z" fill="#85807F"/>
<path d="M145.561 76.6629C145.145 74.579 146.026 69.9746 149.892 69.9712C154.946 70.5199 154.64 76.1646 152.668 78.6313C151.055 80.6502 146.864 81.1297 145.561 76.6629Z" fill="#211715"/>
<path d="M115.443 74.5314C115.075 72.445 115.91 67.8218 119.453 67.7944C124.08 68.3133 123.765 73.975 121.942 76.4614C120.45 78.4982 116.608 79.0025 115.443 74.5314Z" fill="#211715"/>
<path d="M130.659 80.4095C129.933 81.4608 129.23 82.5343 128.6 83.6463C128.243 84.2248 128.021 84.8758 127.95 85.5515C127.93 85.9648 128.001 86.3773 128.159 86.7597C128.317 87.142 128.558 87.4848 128.863 87.7636C129.331 88.2226 129.9 88.5662 130.524 88.767C130.777 88.8327 131.034 88.885 131.293 88.9234C131.827 89.0575 132.393 88.9836 132.874 88.7166C133.223 88.5129 133.504 88.211 133.681 87.8486C133.859 87.4863 133.926 87.0795 133.873 86.6793C133.821 86.2791 133.652 85.9033 133.387 85.5988C133.122 85.2944 132.773 85.0749 132.384 84.9677C132.08 84.9244 131.781 84.8566 131.488 84.7652L131.978 84.972C131.84 84.9113 131.709 84.8366 131.586 84.7489L132.002 85.0695C131.85 84.9514 131.711 84.8189 131.586 84.6737L131.906 85.0891C131.873 85.0495 131.844 85.0062 131.821 84.9601L132.027 85.4498C131.999 85.3813 131.979 85.3095 131.968 85.2361L132.041 85.7815C132.037 85.7047 132.039 85.6278 132.049 85.5515L131.975 86.0968C132.002 85.9609 132.042 85.8281 132.096 85.7003L131.889 86.19C132.225 85.5103 132.61 84.8556 133.039 84.231C133.416 83.6412 133.801 83.0557 134.198 82.4796C134.405 82.1274 134.501 81.7217 134.475 81.3144C134.449 80.9072 134.303 80.5168 134.054 80.1934C133.805 79.8699 133.465 79.6279 133.078 79.4985C132.691 79.3691 132.275 79.358 131.881 79.4667C131.376 79.6286 130.943 79.961 130.656 80.4069L130.659 80.4095Z" fill="#211715"/>
<path d="M186.023 73.6185C186.832 73.2088 187.738 73.0256 188.643 73.0883C189.548 73.1511 190.419 73.4574 191.165 73.9749C191.188 73.9912 191.412 74.1826 191.496 74.2655C191.701 74.4673 191.776 74.557 191.784 74.5681C191.893 74.716 191.984 74.875 192.078 75.0331C192.118 75.1023 192.334 75.5545 192.219 75.2895C192.103 75.0245 192.319 75.5861 192.348 75.6775C192.444 75.9823 192.518 76.2937 192.57 76.6092C192.722 77.7747 192.694 78.9569 192.484 80.1136C191.73 84.689 188.877 89.3626 184.602 91.4191C184.965 91.2482 184.418 91.4849 184.291 91.5277C184.035 91.6131 183.771 91.6918 183.507 91.761C182.977 91.9038 182.436 92.0053 181.89 92.0644C180.569 92.27 179.216 92.0732 178.008 91.4994C175.691 90.231 173.618 93.7722 175.937 95.0423C178.791 96.6047 182.464 96.5124 185.484 95.4492C188.551 94.2232 191.167 92.0856 192.98 89.325C194.793 86.824 195.995 83.9339 196.492 80.8854C196.937 78.0067 196.966 74.7049 195.147 72.2612C193.84 70.6325 191.998 69.5196 189.948 69.1202C187.898 68.7207 185.773 69.0604 183.95 70.0791C181.658 71.3902 183.723 74.9356 186.021 73.6211L186.023 73.6185Z" fill="#211715"/>
<path d="M165.741 111.283C168.754 109.333 171.517 107.022 173.97 104.402C176.4 101.86 178.539 99.0555 180.348 96.04C180.623 95.5702 180.7 95.0106 180.562 94.4841C180.424 93.9577 180.082 93.5077 179.612 93.2331C179.142 92.9585 178.583 92.8817 178.056 93.0197C177.53 93.1577 177.08 93.4992 176.805 93.969C176.049 95.2369 175.221 96.4611 174.327 97.6358C174.241 97.7503 173.891 98.1623 174.265 97.7264C173.936 98.1093 173.637 98.5205 173.316 98.9119C172.592 99.7957 171.844 100.662 171.067 101.5C170 102.68 168.86 103.792 167.654 104.829C167.455 105 167.252 105.161 167.049 105.323C166.924 105.423 166.799 105.522 166.673 105.62C167.022 105.347 166.485 105.762 166.416 105.815C165.521 106.487 164.603 107.125 163.67 107.74C163.209 108.023 162.876 108.473 162.739 108.996C162.601 109.519 162.671 110.075 162.934 110.547C163.212 111.013 163.662 111.351 164.187 111.488C164.711 111.626 165.269 111.552 165.74 111.283H165.741Z" fill="#211715"/>
<path d="M188.498 18.8382C183.386 12.5506 176.38 8.08338 168.523 6.10276C160.373 3.92654 151.847 3.55174 143.537 5.00443C135.451 6.4222 127.85 9.84491 121.428 14.9595C119.83 16.2358 118.327 17.6255 116.929 19.1177C115.754 20.3861 114.435 21.5024 113.305 22.8196C110.724 25.9125 108.642 29.3899 107.135 33.1259C103.157 42.6134 102.634 53.1206 103.754 63.2448C103.769 63.784 103.99 64.2968 104.372 64.6782C104.753 65.0596 105.266 65.2807 105.805 65.2962C106.348 65.2928 106.868 65.0756 107.252 64.6917C107.636 64.3077 107.853 63.7879 107.857 63.2448C106.916 54.7488 107.053 45.9195 109.763 37.7423C110.937 34.1218 112.631 30.6908 114.79 27.5565C115.681 26.2729 116.7 25.0833 117.832 24.0059C119.162 22.7478 120.377 21.3836 121.717 20.1297C133.111 9.4627 149.62 6.28995 164.635 9.39518C172.921 11.1089 180.301 15.0364 185.598 21.74C185.984 22.122 186.505 22.3363 187.048 22.3363C187.591 22.3363 188.112 22.122 188.499 21.74C188.871 21.349 189.079 20.8297 189.079 20.2896C189.079 19.7495 188.871 19.2301 188.499 18.8391L188.498 18.8382Z" fill="#211715"/>
<path d="M197.383 72.9921C199.265 69.23 200.657 65.2421 201.524 61.1259C202.213 57.2073 202.517 53.2307 202.431 49.2529C202.38 43.3792 201.405 37.538 198.71 32.2737C197.294 29.6188 195.583 27.1318 193.61 24.8598C193.224 24.479 192.703 24.2656 192.16 24.2656C191.617 24.2656 191.096 24.479 190.709 24.8598C190.335 25.2499 190.126 25.7696 190.126 26.3102C190.126 26.8509 190.335 27.3706 190.709 27.7607C193.787 31.2764 196.026 35.4456 197.257 39.9534C198.765 45.887 198.636 52.459 197.827 58.4882C197.15 62.8142 195.805 67.0088 193.84 70.922C193.58 71.395 193.511 71.9497 193.648 72.4719C193.785 72.994 194.117 73.4436 194.576 73.7281C195.047 73.9983 195.605 74.0726 196.13 73.9349C196.655 73.7972 197.105 73.4586 197.383 72.9921Z" fill="#211715"/>
<path d="M161.492 49.6564C164.768 51.3141 167.572 53.7716 169.645 56.8011C171.821 60.2565 173.26 64.124 173.871 68.1613C174.02 68.6833 174.368 69.1259 174.839 69.3939C175.311 69.6618 175.87 69.7337 176.394 69.5939C176.912 69.4395 177.351 69.0907 177.618 68.6205C177.885 68.1502 177.96 67.5949 177.828 67.0707C177.118 62.5929 175.486 58.3115 173.033 54.4985C170.614 50.9676 167.361 48.0877 163.563 46.1136C161.238 44.8614 159.165 48.4025 161.492 49.6564Z" fill="#211715"/>
<path d="M109.644 63.0275C114.828 58.3138 120.542 54.2179 126.671 50.822C127.333 50.469 128.004 50.1314 128.687 49.8194C128.927 49.7344 129.161 49.633 129.387 49.5159C129.377 49.5826 128.715 49.2647 128.689 49.2894C128.67 49.3987 128.677 49.5112 128.711 49.6168C128.684 49.9584 128.689 50.3018 128.726 50.6425C128.652 51.0949 128.61 51.5518 128.6 52.01C128.641 52.5559 128.811 53.0842 129.096 53.5515C129.381 54.0187 129.773 54.4115 130.24 54.6973C131.987 55.7512 133.642 54.8589 135.3 54.1264C136.871 53.4315 138.436 52.7203 140.007 52.0194C143.671 50.2997 147.433 48.7943 151.272 47.5107C153.783 46.7244 152.711 42.7619 150.181 43.5551C146.583 44.7507 143.054 46.1455 139.611 47.733C137.953 48.4638 136.302 49.2108 134.648 49.9553C133.937 50.2744 133.224 50.5906 132.511 50.904C132.364 50.969 132.196 51.0245 132.055 51.1015C131.692 51.3006 131.939 51.0109 132.121 51.1271C132.294 51.2191 132.459 51.3276 132.611 51.4511C132.776 51.5895 132.566 52.075 132.726 51.4459C133.22 49.4963 132.64 46.803 130.776 45.7945C129.044 44.8543 127.193 45.9757 125.627 46.7543C122.41 48.4118 119.329 50.3221 116.414 52.4673C113.062 54.8517 109.834 57.4065 106.743 60.1214C104.76 61.8728 107.67 64.7652 109.644 63.0224V63.0275Z" fill="#211715"/>
<path d="M132.714 99.5794C132.865 99.3854 133.171 98.9239 133.424 98.8401C133.218 98.9951 133.176 99.0287 133.299 98.9409C133.358 98.8991 133.418 98.8555 133.481 98.8196C133.624 98.7273 133.774 98.6435 133.926 98.5632C134.4 98.3221 133.651 98.635 134.046 98.5016C134.187 98.4538 134.327 98.4008 134.473 98.3572C134.815 98.2529 135.157 98.1862 135.499 98.1161C135.926 98.0307 135.086 98.1486 135.555 98.1067C135.706 98.0931 135.856 98.0785 136.007 98.0683C136.392 98.0432 136.777 98.0386 137.162 98.0546C137.338 98.0623 137.515 98.0734 137.689 98.0965C137.212 98.0341 137.731 98.1213 137.836 98.1478C137.941 98.1743 138.061 98.2102 138.172 98.2478C138.386 98.3264 138.359 98.3124 138.093 98.2059C138.195 98.1999 138.404 98.3674 138.483 98.4144C138.596 98.4837 138.983 98.6341 138.549 98.4341C138.694 98.5295 138.822 98.6475 138.93 98.7837C138.981 98.8358 139.031 98.8897 139.079 98.9461C139.223 99.117 139.207 99.0945 139.032 98.8786C139.032 98.8786 139.259 99.2341 139.269 99.2521C139.317 99.3375 139.362 99.423 139.404 99.5145L139.313 99.2957C139.427 99.4119 139.444 99.7324 139.49 99.8829C139.611 100.288 139.495 99.5111 139.502 99.9683C139.502 100.128 139.502 100.286 139.502 100.446C139.502 100.863 139.596 100.08 139.478 100.61C139.462 100.797 139.41 100.979 139.324 101.146C139.423 100.928 139.441 100.888 139.377 101.024C139.344 101.096 139.308 101.168 139.27 101.237C139.21 101.387 139.123 101.524 139.013 101.643C139.179 101.437 139.188 101.42 139.043 101.591C138.973 101.667 138.901 101.739 138.825 101.809C138.558 102.1 139.128 101.658 138.754 101.862C138.69 101.903 138.624 101.94 138.555 101.974C138.42 102.043 138.468 102.025 138.7 101.921C138.605 101.954 138.509 101.983 138.411 102.006C138.708 101.978 138.741 101.971 138.506 101.985C137.962 101.985 137.44 102.202 137.055 102.586C136.671 102.971 136.454 103.493 136.454 104.037C136.454 104.581 136.671 105.103 137.055 105.487C137.44 105.872 137.962 106.088 138.506 106.088C139.442 106.032 140.345 105.724 141.121 105.197C141.897 104.671 142.517 103.945 142.915 103.097C143.336 102.241 143.562 101.302 143.577 100.348C143.591 99.3948 143.395 98.4497 143.001 97.5811C142.637 96.8196 142.124 96.1386 141.493 95.5783C140.862 95.018 140.125 94.5896 139.325 94.3186C137.673 93.8406 135.926 93.7959 134.251 94.1887C132.521 94.4648 130.945 95.3473 129.806 96.6785C129.438 97.0747 129.225 97.5908 129.208 98.1315C129.21 98.6754 129.425 99.1968 129.806 99.5846C130.541 100.26 132.003 100.489 132.707 99.5846L132.714 99.5794Z" fill="#211715"/>
<path d="M103.769 63.9439C104.208 70.9185 104.153 77.9299 104.694 84.8951C105.149 90.738 106.318 96.5818 108.991 101.84C114.23 112.157 125.58 118.624 136.927 119.32C143.986 119.753 150.924 118.197 157.493 115.701C158.009 115.544 158.445 115.194 158.712 114.725C158.978 114.256 159.054 113.702 158.925 113.178C158.777 112.656 158.43 112.212 157.957 111.944C157.485 111.676 156.926 111.604 156.402 111.745C150.972 113.957 145.183 115.158 139.321 115.289C134.105 115.359 128.958 114.088 124.375 111.597C119.77 109.142 115.913 105.489 113.213 101.023C110.596 96.4493 109.383 91.1534 108.892 85.9447C108.203 78.6444 108.337 71.263 107.876 63.9439C107.864 63.4036 107.644 62.8888 107.261 62.5067C106.879 62.1245 106.364 61.9046 105.824 61.8926C105.282 61.8973 104.763 62.1149 104.379 62.4986C103.995 62.8823 103.778 63.4013 103.773 63.9439H103.769Z" fill="#211715"/>
<path d="M125.415 122.787C135.59 140.543 161.116 136.207 176.334 128.435C180.78 126.167 184.935 123.369 188.708 120.101C190.705 118.366 187.793 115.474 185.807 117.2C179.607 122.532 172.342 126.481 164.495 128.784C160.476 129.984 156.33 130.711 152.142 130.949C147.518 131.197 142.747 130.864 138.436 129.041C134.452 127.375 131.122 124.452 128.954 120.717C127.641 118.427 124.095 120.491 125.411 122.787H125.415Z" fill="#211715"/>
<path d="M199.195 189.635L206.076 214.828C206.771 217.371 210.73 216.292 210.031 213.737L203.148 188.542C202.453 185.998 198.494 187.078 199.193 189.633L199.195 189.635Z" fill="#211715"/>
</svg>
