<svg width="256" height="256" viewBox="0 0 256 256" fill="none" xmlns="http://www.w3.org/2000/svg">
<path fill-rule="evenodd" clip-rule="evenodd" d="M127.704 4.13844e-09C135.339 4.13844e-09 141.53 6.22169 141.53 13.8968L141.528 242.103C141.528 249.778 135.337 256 127.702 256C120.066 256 113.876 249.778 113.876 242.103L113.878 13.8966C113.878 6.22169 120.068 -0.000185287 127.704 4.13844e-09Z" fill="black"/>
<path fill-rule="evenodd" clip-rule="evenodd" d="M255.05 128.001C255.05 135.675 248.86 141.898 241.224 141.898L14.1821 141.896C6.54637 141.896 0.356445 135.674 0.356445 127.999C0.356445 120.324 6.54655 114.102 14.1823 114.102L241.224 114.104C248.86 114.104 255.05 120.326 255.05 128.001Z" fill="black"/>
</svg>
