<svg width="256" height="226" viewBox="0 0 256 226" fill="none" xmlns="http://www.w3.org/2000/svg">
<path fill-rule="evenodd" clip-rule="evenodd" d="M96.3823 0C98.018 0.00082343 99.6138 0.597915 100.952 1.71003C102.291 2.82214 103.308 4.39525 103.864 6.2153L160.056 189.021L184.411 109.766C184.972 107.953 185.991 106.388 187.329 105.283C188.668 104.178 190.261 103.586 191.892 103.588H247.607C249.718 103.588 251.742 104.581 253.235 106.347C254.727 108.113 255.566 110.508 255.566 113.006C255.566 115.503 254.727 117.898 253.235 119.664C251.742 121.431 249.718 122.423 247.607 122.423H197.464L167.537 219.796C166.98 221.614 165.962 223.184 164.624 224.294C163.285 225.405 161.69 226 160.056 226C158.421 226 156.826 225.405 155.488 224.294C154.149 223.184 153.132 221.614 152.574 219.796L96.3823 36.9905L72.0272 116.226C71.4684 118.043 70.4507 119.612 69.1122 120.72C67.7737 121.829 66.1794 122.423 64.5455 122.423H8.83125C6.72035 122.423 4.6959 121.431 3.20326 119.664C1.71062 117.898 0.87207 115.503 0.87207 113.006C0.87207 110.508 1.71062 108.113 3.20326 106.347C4.6959 104.581 6.72035 103.588 8.83125 103.588H58.9741L88.9006 6.2153C89.4568 4.39525 90.4734 2.82214 91.8121 1.71003C93.1508 0.597915 94.7466 0.00082343 96.3823 0Z" fill="black"/>
</svg>
