<svg width="257" height="249" viewBox="0 0 257 249" fill="none" xmlns="http://www.w3.org/2000/svg">
<path d="M192.816 244.522H65.0012C59.1864 244.522 53.6096 242.212 49.4979 238.1C45.3862 233.988 43.0762 228.412 43.0762 222.597V76.1266C43.0762 75.2593 43.4208 74.4276 44.034 73.8143C44.6473 73.201 45.4791 72.8564 46.3464 72.8564H211.47C212.337 72.8564 213.169 73.201 213.782 73.8143C214.395 74.4276 214.74 75.2593 214.74 76.1266V222.597C214.739 228.411 212.429 233.987 208.318 238.099C204.207 242.21 198.631 244.521 192.816 244.522Z" stroke="black" stroke-width="8.17547" stroke-miterlimit="10"/>
<path d="M244.649 164.077H218.018C217.151 164.077 216.319 163.732 215.706 163.119C215.093 162.505 214.748 161.674 214.748 160.806V93.6335C214.748 92.7662 215.093 91.9344 215.706 91.3211C216.319 90.7078 217.151 90.3633 218.018 90.3633H244.649C246.817 90.3633 248.897 91.2246 250.43 92.7578C251.963 94.291 252.825 96.3705 252.825 98.5387V155.901C252.825 158.069 251.963 160.149 250.43 161.682C248.897 163.215 246.817 164.077 244.649 164.077Z" stroke="black" stroke-width="8.17547" stroke-miterlimit="10"/>
<path d="M218.651 72.858H39.1618C35.8551 72.858 32.5807 72.2067 29.5257 70.9413C26.4707 69.6758 23.6948 67.821 21.3566 65.4828C19.0184 63.1446 17.1636 60.3687 15.8982 57.3137C14.6327 54.2587 13.9814 50.9843 13.9814 47.6776V30.1804C13.9814 23.5022 16.6344 17.0974 21.3566 12.3752C26.0789 7.65292 32.4836 5 39.1618 5H218.656C221.963 5 225.237 5.65131 228.292 6.91675C231.347 8.18218 234.123 10.037 236.461 12.3752C238.799 14.7134 240.654 17.4893 241.919 20.5443C243.185 23.5993 243.836 26.8737 243.836 30.1804V47.6841C243.837 50.9911 243.186 54.2659 241.92 57.3211C240.655 60.3764 238.799 63.1523 236.46 65.4902C234.121 67.8281 231.345 69.6821 228.289 70.9463C225.233 72.2105 221.958 72.8602 218.651 72.858Z" stroke="black" stroke-width="8.17547" stroke-miterlimit="10"/>
<path d="M190.217 223.345H67.6061C66.7388 223.345 65.9071 223.001 65.2938 222.388C64.6805 221.774 64.3359 220.942 64.3359 220.075V181.417C64.3359 180.549 64.6805 179.718 65.2938 179.104C65.9071 178.491 66.7388 178.146 67.6061 178.146H190.217C191.084 178.146 191.916 178.491 192.529 179.104C193.143 179.718 193.487 180.549 193.487 181.417V220.075C193.487 220.942 193.143 221.774 192.529 222.388C191.916 223.001 191.084 223.345 190.217 223.345Z" stroke="black" stroke-width="8.17547" stroke-miterlimit="10"/>
<path d="M252.824 109.612H233.775" stroke="black" stroke-width="8.17547" stroke-miterlimit="10"/>
<path d="M39.8062 164.077H13.1755C11.0072 164.077 8.92775 163.215 7.39456 161.682C5.86136 160.149 5 158.069 5 155.901V98.5387C5 96.3705 5.86136 94.291 7.39456 92.7578C8.92775 91.2246 11.0072 90.3633 13.1755 90.3633H39.8062C40.6735 90.3633 41.5054 90.7078 42.1186 91.3211C42.7319 91.9344 43.0764 92.7662 43.0764 93.6335V160.806C43.0764 161.674 42.7319 162.505 42.1186 163.119C41.5054 163.732 40.6735 164.077 39.8062 164.077Z" stroke="black" stroke-width="8.17547" stroke-miterlimit="10"/>
<path d="M24.0374 109.612H5" stroke="black" stroke-width="8.17547" stroke-miterlimit="10"/>
<path d="M210.148 133.505H47.6725C44.2033 133.505 40.8762 132.127 38.423 129.674C35.9699 127.221 34.5918 123.894 34.5918 120.424V76.1281C34.5918 75.2608 34.9363 74.429 35.5496 73.8157C36.1628 73.2024 36.9947 72.8579 37.862 72.8579H219.959C220.826 72.8579 221.658 73.2024 222.271 73.8157C222.885 74.429 223.229 75.2608 223.229 76.1281V120.424C223.229 123.894 221.851 127.221 219.398 129.674C216.945 132.127 213.618 133.505 210.148 133.505Z" fill="white" stroke="black" stroke-width="8.17547" stroke-miterlimit="10"/>
<path d="M86.6861 147.472H74.1432C73.2759 147.472 72.4442 147.127 71.8309 146.514C71.2176 145.901 70.873 145.069 70.873 144.202V5.00635H89.9563V144.202C89.9563 145.069 89.6118 145.901 88.9985 146.514C88.3852 147.127 87.5534 147.472 86.6861 147.472Z" fill="white" stroke="black" stroke-width="8.17547" stroke-miterlimit="10"/>
<path d="M183.676 147.472H171.133C170.266 147.472 169.434 147.127 168.821 146.514C168.208 145.901 167.863 145.069 167.863 144.202V5.00635H186.946V144.202C186.946 145.069 186.602 145.901 185.989 146.514C185.375 147.127 184.544 147.472 183.676 147.472Z" fill="white" stroke="black" stroke-width="8.17547" stroke-miterlimit="10"/>
<path d="M126.597 114.216L117.873 105.493C117.26 104.879 116.916 104.048 116.916 103.181C116.916 102.314 117.26 101.482 117.873 100.869L126.597 92.1455C127.21 91.5324 128.042 91.188 128.909 91.188C129.776 91.188 130.607 91.5324 131.221 92.1455L139.942 100.869C140.555 101.482 140.9 102.314 140.9 103.181C140.9 104.048 140.555 104.879 139.942 105.493L131.221 114.216C130.607 114.829 129.776 115.173 128.909 115.173C128.042 115.173 127.21 114.829 126.597 114.216Z" stroke="black" stroke-width="8.17547" stroke-miterlimit="10"/>
<path d="M92.5036 159.736H68.319C67.4517 159.736 66.6199 159.391 66.0066 158.778C65.3933 158.165 65.0488 157.333 65.0488 156.465V142.158C65.0488 141.291 65.3933 140.459 66.0066 139.846C66.6199 139.233 67.4517 138.888 68.319 138.888H92.5036C93.3709 138.888 94.2027 139.233 94.816 139.846C95.4293 140.459 95.7738 141.291 95.7738 142.158V156.465C95.7738 157.333 95.4293 158.165 94.816 158.778C94.2027 159.391 93.3709 159.736 92.5036 159.736Z" fill="white" stroke="black" stroke-width="8.17547" stroke-miterlimit="10"/>
<path d="M189.497 159.736H165.306C164.439 159.736 163.607 159.391 162.994 158.778C162.381 158.165 162.036 157.333 162.036 156.465V142.158C162.036 141.291 162.381 140.459 162.994 139.846C163.607 139.233 164.439 138.888 165.306 138.888H189.497C190.365 138.888 191.197 139.233 191.81 139.846C192.423 140.459 192.768 141.291 192.768 142.158V156.465C192.768 157.333 192.423 158.165 191.81 158.778C191.197 159.391 190.365 159.736 189.497 159.736Z" fill="white" stroke="black" stroke-width="8.17547" stroke-miterlimit="10"/>
<path d="M92.5036 110.009H68.319C67.4517 110.009 66.6199 109.664 66.0066 109.051C65.3933 108.438 65.0488 107.606 65.0488 106.739V99.6261C65.0488 98.7588 65.3933 97.927 66.0066 97.3138C66.6199 96.7005 67.4517 96.356 68.319 96.356H92.5036C93.3709 96.356 94.2027 96.7005 94.816 97.3138C95.4293 97.927 95.7738 98.7588 95.7738 99.6261V106.742C95.7729 107.609 95.428 108.44 94.8148 109.052C94.2016 109.665 93.3703 110.009 92.5036 110.009Z" fill="white" stroke="black" stroke-width="8.17547" stroke-miterlimit="10"/>
<path d="M189.497 110.009H165.306C164.439 110.009 163.607 109.664 162.994 109.051C162.381 108.438 162.036 107.606 162.036 106.739V99.6261C162.036 98.7588 162.381 97.927 162.994 97.3138C163.607 96.7005 164.439 96.356 165.306 96.356H189.497C190.365 96.356 191.197 96.7005 191.81 97.3138C192.423 97.927 192.768 98.7588 192.768 99.6261V106.742C192.767 107.609 192.422 108.44 191.809 109.052C191.196 109.665 190.364 110.009 189.497 110.009Z" fill="white" stroke="black" stroke-width="8.17547" stroke-miterlimit="10"/>
<path d="M64.332 193.369H192.767" stroke="black" stroke-width="8.17547" stroke-miterlimit="10"/>
</svg>
