<svg width="260" height="261" viewBox="0 0 260 261" fill="none" xmlns="http://www.w3.org/2000/svg">
<path opacity="0.4" d="M205.333 69.715C204.584 69.5896 203.711 69.5896 202.962 69.715C185.743 69.0879 172.018 54.9158 172.018 37.3575C172.018 19.4229 186.367 5 204.21 5C222.053 5 236.402 19.5483 236.402 37.3575C236.278 54.9158 222.552 69.0879 205.333 69.715Z" stroke="#292D32" stroke-width="9.728" stroke-linecap="round" stroke-linejoin="round"/>
<path opacity="0.4" d="M192.473 161.021C209.567 163.905 228.409 160.895 241.635 151.991C259.229 140.202 259.229 120.887 241.635 109.098C228.284 100.193 209.193 97.1832 192.099 100.193" stroke="#292D32" stroke-width="9.728" stroke-linecap="round" stroke-linejoin="round"/>
<path opacity="0.4" d="M55.2071 69.715C55.9558 69.5896 56.8292 69.5896 57.5779 69.715C74.7971 69.0879 88.5225 54.9158 88.5225 37.3575C88.5225 19.4229 74.1732 5 56.3301 5C38.487 5 24.1377 19.5483 24.1377 37.3575C24.2625 54.9158 37.9879 69.0879 55.2071 69.715Z" stroke="#292D32" stroke-width="9.728" stroke-linecap="round" stroke-linejoin="round"/>
<path opacity="0.4" d="M68.0711 161.021C50.9766 163.905 32.1354 160.895 18.909 151.991C1.31549 140.202 1.31549 120.887 18.909 109.098C32.2601 100.193 51.351 97.1832 68.4454 100.193" stroke="#292D32" stroke-width="9.728" stroke-linecap="round" stroke-linejoin="round"/>
<path d="M130.492 163.404C129.744 163.278 128.87 163.278 128.122 163.404C110.902 162.777 97.1768 148.605 97.1768 131.046C97.1768 113.112 111.526 98.689 129.369 98.689C147.213 98.689 161.562 113.237 161.562 131.046C161.437 148.605 147.712 162.902 130.492 163.404Z" stroke="#292D32" stroke-width="9.728" stroke-linecap="round" stroke-linejoin="round"/>
<path d="M94.1893 202.913C76.5958 214.702 76.5958 234.015 94.1893 245.804C114.154 259.223 146.845 259.223 166.809 245.804C184.403 234.015 184.403 214.702 166.809 202.913C146.97 189.618 114.154 189.618 94.1893 202.913Z" stroke="#292D32" stroke-width="9.728" stroke-linecap="round" stroke-linejoin="round"/>
</svg>
