<svg width="256" height="256" viewBox="0 0 256 256" fill="none" xmlns="http://www.w3.org/2000/svg">
<path d="M146.16 131.245C145.193 134.579 143.937 137.269 143.726 140.003C142.915 150.739 140.559 161.42 142.615 172.3C143.304 175.99 142.137 177.524 138.736 178.969C137.28 179.599 135.759 180.068 134.202 180.369C123.553 182.547 112.542 182.204 102.049 179.369C99.0435 178.329 96.1414 177.012 93.3799 175.434C89.8678 173.701 88.5453 170.789 88.523 166.877C88.523 151.917 87.934 136.969 88.2341 122.021C88.3786 114.752 89.79 107.495 90.957 100.282C91.9266 95.2168 94.015 90.4324 97.0697 86.2779C101.682 84.7441 106.461 85.2554 111.185 85.3221C120.113 85.4904 129.018 84.3674 137.625 81.9879C141.681 80.8765 145.282 78.9204 147.627 75.1416C148.715 73.5661 149.342 71.7186 149.438 69.8065C149.534 67.8944 149.096 65.9934 148.172 64.3166C142.859 53.9806 134.857 49.9351 123.743 53.1137C107.661 57.7038 95.3359 67.0062 88.5453 82.8103C85.3 90.3678 82.9883 91.4459 75.4419 89.4009C73.5726 88.9974 71.7769 88.3076 70.1183 87.3559C62.1384 82.1323 54.203 76.8421 46.3787 71.3851C43.8336 69.618 43.2779 67.0506 44.0337 63.8054C45.2722 58.5253 47.6213 53.5697 50.9244 49.2682C61.7365 35.0627 74.7216 22.6514 89.401 12.492C97.7032 6.66826 107.306 4.44546 116.953 2.31157C128.889 -0.333565 140.714 -0.967063 152.884 1.7781C164.779 4.29859 175.58 10.4962 183.759 19.4938C188.916 25.1175 193.762 31.0413 198.463 37.0651C204.654 45.1801 208.874 54.6238 210.788 64.65C215.956 89.2342 207.054 108.084 188.438 123.554C181.658 129.178 173.823 131.001 165.388 131.212C159.375 131.367 153.34 131.245 146.16 131.245ZM132.123 170.366C132.39 168.366 132.768 166.221 132.946 164.054C133.501 157.385 133.824 150.717 134.557 144.048C135.18 138.358 136.291 132.723 137.091 127.055C137.569 123.721 139.614 122.009 142.648 121.498C144.52 121.142 146.423 120.978 148.328 121.009C154.062 121.143 159.786 121.331 165.499 121.676C169.302 122.056 173.139 121.415 176.613 119.82C188.216 113.974 197.007 105.372 200.33 92.6129C203.175 81.7211 203.297 70.6071 198.93 59.7821C196.533 53.5381 193.206 47.6926 189.06 42.4442C184.826 37.2651 180.847 31.8637 176.368 26.8846C169.411 19.216 161.164 13.47 150.806 10.9472C132.168 6.34595 114.363 9.42453 97.1697 17.56C95.4858 18.4624 93.8799 19.5033 92.3685 20.6719C79.4985 29.7187 68.5956 40.8438 58.7153 52.9692C56.1702 56.0922 53.3583 59.3264 53.2361 63.6831C60.674 71.3703 69.6545 77.3964 79.5874 81.3655L84.3331 73.419C88.1118 67.1062 92.1129 60.9268 98.2478 56.6479C107.228 50.3796 117.142 45.6895 127.889 44.0669C142.871 41.8441 154.385 49.4127 158.908 65.8392C159.789 69.2747 159.492 72.9066 158.063 76.153C155.24 82.977 150.695 87.8005 143.426 90.1233C135.555 92.7127 127.317 94.0076 119.031 93.9577C114.019 93.9577 108.951 93.4242 104.26 94.4356C100.282 99.9926 99.8149 106.172 99.5037 112.218C98.7035 127.1 98.1811 141.992 97.6476 156.885C97.6924 159.242 97.8705 161.595 98.1811 163.931C109.795 172.156 118.964 173.878 132.123 170.366Z" fill="black"/>
<path d="M115.963 255.966C109.554 256.206 103.232 254.422 97.8941 250.867C92.5559 247.312 88.4723 242.167 86.2222 236.161C84.7189 232.634 84.1228 228.786 84.4884 224.969C85.8332 214.6 89.7342 205.598 97.5696 198.151C104.794 191.272 112.54 189.571 122.02 192.05C128.255 193.684 134.312 195.195 139.158 199.774C146.327 206.531 150.194 214.445 148.383 224.525C148.105 226.092 147.96 227.681 147.694 229.248C144.749 246.586 133.568 255.989 115.963 255.966ZM117.953 246.731C120.189 246.414 122.397 245.92 124.554 245.253C133.168 242.174 140.792 229.86 139.747 220.88C139.454 219.342 138.964 217.848 138.291 216.434C133.846 205.131 124.288 201.541 113.329 200.496C111.126 200.317 108.926 200.872 107.072 202.075C100.404 206.854 95.5357 213.378 94.202 221.402C92.0015 234.694 102.782 247.02 117.953 246.731Z" fill="black"/>
<path d="M132.124 170.366C118.965 173.878 109.795 172.156 98.1814 163.931C97.8876 161.579 97.7281 159.211 97.7035 156.841C98.2369 141.948 98.7593 127.055 99.5595 112.173C99.8929 106.172 100.337 100.048 104.316 94.391C109.006 93.3797 114.074 93.8909 119.087 93.9131C127.372 93.9631 135.611 92.6681 143.482 90.0788C150.751 87.7004 155.296 82.9325 158.119 76.1085C159.548 72.8621 159.845 69.2302 158.964 65.7947C154.385 49.4126 142.871 41.7996 127.889 44.0668C117.075 45.6895 107.228 50.3796 98.248 56.6812C92.102 60.9601 88.1121 67.1395 84.3333 73.4522L79.5876 81.3988C69.6518 77.4199 60.671 71.3822 53.2363 63.683C53.3586 59.3263 56.1704 56.0922 58.7155 52.9691C68.5959 40.8437 79.4987 29.7186 92.3687 20.6718C93.8801 19.5032 95.4861 18.4623 97.17 17.5599C114.363 9.42445 132.168 6.34588 150.973 10.9693C161.276 13.4922 169.522 19.2381 176.535 26.9068C180.981 31.8414 184.993 37.2428 189.227 42.4664C193.373 47.7148 196.7 53.5602 199.097 59.8042C203.464 70.6293 203.342 81.7433 200.497 92.635C197.163 105.361 188.383 113.996 176.78 119.842C173.306 121.438 169.469 122.078 165.666 121.698C159.953 121.354 154.229 121.165 148.494 121.031C146.59 121 144.687 121.164 142.815 121.52C139.726 122.076 137.681 123.743 137.258 127.077C136.458 132.745 135.347 138.38 134.724 144.071C133.991 150.739 133.613 157.407 133.113 164.076C132.768 166.221 132.39 168.366 132.124 170.366Z" fill="white"/>
<path d="M117.953 246.731C102.782 247.042 92.0017 234.716 94.2022 221.424C95.5359 213.389 100.404 206.854 107.072 202.075C108.92 200.852 111.12 200.278 113.329 200.441C124.288 201.486 133.813 205.075 138.291 216.378C138.964 217.792 139.454 219.286 139.747 220.824C140.792 229.804 133.168 242.118 124.555 245.197C122.398 245.883 120.191 246.396 117.953 246.731Z" fill="white"/>
</svg>
