<svg width="256" height="243" viewBox="0 0 256 243" fill="none" xmlns="http://www.w3.org/2000/svg">
<path d="M163.311 136.828C138.972 136.828 119.173 156.627 119.173 180.966C119.173 183.403 121.149 185.379 123.586 185.379C126.023 185.379 128 183.403 128 180.966C128 161.496 143.841 145.656 163.31 145.656C165.747 145.656 167.723 143.68 167.723 141.243C167.723 138.805 165.748 136.828 163.311 136.828Z" fill="black"/>
<path d="M105.93 61.7937C105.93 37.4547 86.1313 17.6558 61.7923 17.6558C59.3551 17.6558 57.3789 19.6319 57.3789 22.0691C57.3789 24.5063 59.3551 26.4825 61.7923 26.4825C81.2624 26.4836 97.1035 42.3247 97.1035 61.7937C97.1035 64.2309 99.0797 66.2071 101.517 66.2071C103.954 66.2071 105.93 64.2309 105.93 61.7937Z" fill="black"/>
<path d="M255.661 95.4182C255.213 94.3389 254.353 93.4792 253.275 93.0313C252.735 92.8084 252.163 92.6904 251.588 92.6904H207.45C205.013 92.6904 203.037 94.6666 203.037 97.1038C203.037 99.541 205.013 101.517 207.45 101.517H240.933L206.536 135.914C206.358 136.092 206.276 136.319 206.135 136.518C195.017 125.804 179.937 119.173 163.312 119.173C129.239 119.173 101.519 146.893 101.519 180.966C101.519 215.04 129.239 242.76 163.312 242.76C197.386 242.76 225.106 215.04 225.106 180.966C225.106 166.558 220.109 153.318 211.812 142.797C212.146 142.606 212.493 142.441 212.778 142.156L247.174 107.76V141.243C247.174 143.68 249.15 145.656 251.587 145.656C254.024 145.656 256 143.68 256 141.243V97.1049C256 96.5292 255.883 95.9568 255.661 95.4182ZM216.277 180.966C216.277 210.171 192.516 233.932 163.311 233.932C134.106 233.932 110.345 210.171 110.345 180.966C110.345 151.762 134.106 128.001 163.311 128.001C192.516 128.001 216.277 151.762 216.277 180.966Z" fill="black"/>
<path d="M81.8995 154.484H66.207V123.363C98.2202 121.084 123.586 94.3771 123.586 61.7936C123.586 27.72 95.866 0 61.7925 0C27.719 0 0 27.7211 0 61.7936C0 94.3771 25.367 121.084 57.3791 123.363V154.484H41.9313C39.4941 154.484 37.5179 156.46 37.5179 158.897C37.5179 161.335 39.4941 163.311 41.9313 163.311H57.3791V176.552C57.3791 178.989 59.3553 180.965 61.7925 180.965C64.2297 180.965 66.2059 178.989 66.2059 176.552V163.311H81.8973C84.3345 163.311 86.3107 161.335 86.3107 158.897C86.3107 156.46 84.3367 154.484 81.8995 154.484ZM61.7936 114.759C32.589 114.759 8.82781 90.9982 8.82781 61.7936C8.82781 32.5889 32.589 8.82781 61.7936 8.82781C90.9982 8.82781 114.759 32.5889 114.759 61.7936C114.759 90.9982 90.9982 114.759 61.7936 114.759Z" fill="black"/>
</svg>
