<svg width="232" height="256" viewBox="0 0 232 256" fill="none" xmlns="http://www.w3.org/2000/svg">
<path d="M169.973 177.518C168.042 176.795 165.937 175.8 163.798 174.621L128.013 224.089L125.468 191.682H106.451L103.906 224.089L68.1213 174.621C65.9173 175.854 63.7933 176.865 61.9408 177.518C43.2018 184.115 -2.83371 203.086 0.137291 238.623C0.850291 247.151 47.7478 256.001 115.96 256.001C184.166 256.001 231.064 247.151 231.777 238.623C234.748 203.052 188.593 184.481 169.973 177.518Z" fill="black"/>
<path d="M73.707 104.136C76.312 118.894 80.69 131.913 86.454 138.326C86.454 146.017 86.454 151.628 86.454 156.119C86.454 156.57 86.375 157.045 86.246 157.536L106.451 167.267V181.539H125.468V167.267L145.663 157.541C145.534 157.05 145.455 156.575 145.455 156.119C145.455 151.628 145.455 146.017 145.455 138.326C151.229 131.913 155.607 118.894 158.212 104.136C164.283 101.967 167.76 98.4953 172.093 83.3068C176.708 67.1278 165.155 67.6778 165.155 67.6778C174.5 36.7413 162.194 7.66685 141.593 9.80135C127.38 -15.0637 79.779 15.4813 64.8525 13.3523C64.8525 21.8798 68.4085 28.2733 68.4085 28.2733C63.219 38.1183 65.2195 57.7488 66.6855 67.6778C65.8335 67.6628 55.3845 67.7719 59.8215 83.3068C64.159 98.4953 67.6255 101.967 73.707 104.136Z" fill="black"/>
</svg>
