<svg width="255" height="256" viewBox="0 0 255 256" fill="none" xmlns="http://www.w3.org/2000/svg">
<path d="M0.214844 0V7.86902L74.9811 79.3415L47.6743 0H0.214844ZM65.6692 0L101.973 67.0751L100.429 0.000538862H65.6681L65.6692 0ZM119.038 0L131.138 63.9248L150.063 0H119.038ZM168.671 0L159.991 70.2092L208.08 0H168.672H168.671ZM225.129 0L185.737 85.3391L254.909 31.7942V0H225.128H225.129ZM0.214844 28.9636V74.3036L52.9523 99.4931L0.214844 28.9636ZM254.909 53.849L205.275 107.377L254.908 89.737V53.8485L254.909 53.849ZM89.0748 85.9128C83.2741 85.9591 75.7088 91.5001 69.8853 100.672C66.4431 106.092 64.1972 111.868 63.2453 117.065C37.1953 129.292 2.73804 151.521 2.73804 151.521L81.5881 219.455L89.5561 256H166.197L172.207 221.14L172.257 221.19L253.132 151.522C253.132 151.522 218.055 128.883 191.929 116.729C190.942 111.62 188.722 105.975 185.355 100.673C179.531 91.5017 171.949 85.9602 166.149 85.9133C164.215 85.8971 162.48 86.4918 161.07 87.7669C159.785 88.9283 158.883 90.5544 158.347 92.518C159.013 93.3677 159.667 94.2303 160.289 95.1297C166.478 104.064 170.689 115.416 172.226 128.018C176.798 132.213 181.555 134.36 185.355 133.83L214.355 153.207L158.796 184.376C156.634 187.214 154.242 189.779 151.658 192.008C148.696 189.666 145.797 187.722 142.926 186.179C146.287 183.758 149.411 180.529 152.172 176.542C158.706 167.108 162.945 153.674 162.945 138.732C162.945 123.791 158.706 110.357 152.172 100.924C145.638 91.4909 137.139 86.1974 128.035 86.1974C118.931 86.1974 110.433 91.4909 103.899 100.923C97.3653 110.355 93.1263 123.79 93.1263 138.731C93.1263 153.673 97.3653 167.107 103.899 176.54C106.311 180.021 108.988 182.938 111.867 185.233C108.94 186.645 105.987 188.481 103.002 190.743C101.013 188.88 99.1458 186.813 97.4248 184.576L41.5161 153.204L70.4335 133.878C74.4122 134.155 79.3364 131.673 83.979 127.088C85.6045 114.859 89.7457 103.84 95.7823 95.127C96.2019 94.5188 96.6359 93.9246 97.0763 93.3402C96.5801 91.0078 95.6144 89.083 94.1547 87.7631C92.7444 86.4886 91.0084 85.8944 89.0748 85.9101V85.9128ZM121.527 117.436C121.18 119.495 120.98 121.733 120.98 124.074C120.98 125.284 121.016 126.452 121.113 127.595C115.126 128.103 109.369 129.42 104.081 131.555L100.413 122.205C107.073 119.515 114.199 117.939 121.528 117.437L121.527 117.436ZM136.518 117.857C142.662 118.599 148.815 120.032 154.828 122.12L151.623 131.64C146.733 129.942 141.757 128.757 136.8 128.068C136.926 126.778 136.983 125.453 136.983 124.075C136.983 121.894 136.822 119.799 136.518 117.858L136.518 117.857ZM127.753 140.132C138.518 140.132 147.259 148.976 147.259 159.895C147.259 170.816 138.518 179.675 127.753 179.675C116.988 179.675 108.264 170.815 108.264 159.896C108.264 148.977 116.988 140.132 127.753 140.132V140.132Z" fill="black"/>
</svg>
