<svg width="90" height="90" viewBox="0 0 90 90" fill="none" xmlns="http://www.w3.org/2000/svg">
<path d="M5.62464 0.00502185L0 5.62934L12.3742 22.9579C12.8951 23.6876 13.583 24.2822 14.3804 24.6922C15.1778 25.1021 16.0617 25.3155 16.9583 25.3145H17.352C18.0915 25.3139 18.8239 25.4591 19.5072 25.7419C20.1906 26.0247 20.8114 26.4394 21.3342 26.9624L36.3801 42.0075L21.6605 56.9344C19.1428 56.1933 16.4872 56.0491 13.9041 56.5131C11.321 56.9772 8.8816 58.0367 6.77937 59.6077C4.67714 61.1787 2.96992 63.2179 1.79315 65.5636C0.616383 67.9093 0.00243097 70.4969 0 73.1212C0.00337176 75.5393 0.526487 77.9285 1.5339 80.1268C2.54132 82.3251 4.0095 84.2812 5.83897 85.8625C7.66844 87.4439 9.81646 88.6136 12.1375 89.2923C14.4585 89.9711 16.8983 90.143 19.2916 89.7965C21.6849 89.4501 23.9758 88.5932 26.009 87.2841C28.0422 85.975 29.7703 84.2442 31.0762 82.209C32.382 80.1737 33.2351 77.8815 33.5776 75.4878C33.9202 73.0941 33.7442 70.6547 33.0616 68.3349L47.9894 53.6161L53.434 59.0604L51.7185 64.201C51.3889 65.1919 51.3416 66.2549 51.582 67.2711C51.8224 68.2873 52.341 69.2166 53.0797 69.9547L71.4722 88.3462C71.9934 88.8703 72.613 89.2863 73.2955 89.5701C73.9779 89.8539 74.7097 90 75.4489 90C76.188 90 76.9198 89.8539 77.6023 89.5701C78.2847 89.2863 78.9043 88.8703 79.4255 88.3462L88.3462 79.4261C88.8703 78.905 89.2862 78.2854 89.5701 77.603C89.8539 76.9205 90 76.1888 90 75.4497C90 74.7106 89.8539 73.9788 89.5701 73.2964C89.2862 72.614 88.8703 71.9944 88.3462 71.4733L69.9536 53.0817C69.2154 52.3431 68.2861 51.8246 67.2699 51.5842C66.2536 51.3438 65.1905 51.391 64.1996 51.7207L59.0587 53.4361L53.659 48.0367L68.733 33.1716C71.2337 33.8391 73.8542 33.9234 76.3926 33.4181C78.931 32.9127 81.3194 31.8312 83.3737 30.2568C85.4279 28.6825 87.0932 26.6575 88.2411 24.3379C89.3889 22.0183 89.9887 19.466 89.9942 16.878C89.9942 15.3594 89.8029 13.9027 89.4205 12.5079L77.3837 24.5496L67.4956 22.5023L65.4483 12.6204L77.4906 0.578703C74.6259 -0.191485 71.6089 -0.192922 68.7435 0.574535C65.8781 1.34199 63.2656 2.85122 61.1695 4.95009C59.0734 7.04896 57.5676 9.6633 56.804 12.5296C56.0404 15.3958 56.0459 18.4128 56.8201 21.2762L41.971 36.3381L26.9589 21.3381C25.904 20.2836 25.3112 18.8532 25.3109 17.3617V16.9624C25.3109 16.0667 25.0971 15.184 24.6872 14.3877C24.2773 13.5914 23.6831 12.9045 22.9541 12.3842L5.62464 0.00502185ZM59.8799 59.8815C60.1411 59.6197 60.4515 59.4119 60.7931 59.2701C61.1348 59.1283 61.5011 59.0554 61.871 59.0554C62.2409 59.0554 62.6072 59.1283 62.9489 59.2701C63.2905 59.4119 63.6009 59.6197 63.8621 59.8815L80.2523 76.2765C80.7646 76.8068 81.048 77.5172 81.0416 78.2545C81.0352 78.9919 80.7395 79.6972 80.218 80.2186C79.6966 80.74 78.9913 81.0357 78.2539 81.0421C77.5165 81.0486 76.8061 80.7651 76.2757 80.2528L59.8799 63.8636C59.618 63.6023 59.4102 63.292 59.2684 62.9504C59.1266 62.6087 59.0536 62.2425 59.0536 61.8726C59.0536 61.5027 59.1266 61.1364 59.2684 60.7948C59.4102 60.4531 59.618 60.1428 59.8799 59.8815ZM16.8739 61.8726L19.5231 63.2336L22.4985 63.3799L24.1128 65.8827L26.6158 67.4969L26.762 70.4722L28.1232 73.1212L26.762 75.7703L26.6158 78.7455L24.1128 80.3597L22.4985 82.8625L19.5231 83.0088L16.8739 84.3699L14.2247 83.0088L11.2493 82.8625L9.635 80.3597L7.13204 78.7455L6.9858 75.7703L5.62464 73.1212L6.9858 70.4722L7.13204 67.4969L9.635 65.8827L11.2493 63.3799L14.2247 63.2336L16.8739 61.8726Z" fill="black"/>
</svg>
