<svg xmlns="http://www.w3.org/2000/svg" width="62" height="62" fill="none"><path fill="#000" stroke="#000" stroke-width=".001" d="M39 31h9.888c1.15 0 2.112-.962 2-2.1-.575-5.45-3.375-10.225-7.438-13.475-.95-.763-2.35-.562-3 .475l-5.213 8.35A7.95 7.95 0 0 1 39 31Zm-12.225 6.763-5.225 8.362c-.613.975-.3 2.3.725 2.813C24.913 50.238 27.863 51 31 51c3.138 0 6.087-.763 8.737-2.062 1.026-.513 1.325-1.838.725-2.813l-5.225-8.362A7.9 7.9 0 0 1 31.012 39a7.93 7.93 0 0 1-4.237-1.237ZM13.113 31H23c0-2.85 1.512-5.35 3.775-6.762l-5.212-8.35c-.65-1.038-2.05-1.238-3-.476-4.075 3.25-6.863 8.025-7.438 13.475-.137 1.15.838 2.113 1.988 2.113ZM31 62c17.125 0 31-13.875 31-31S48.125 0 31 0 0 13.875 0 31s13.875 31 31 31Zm0-54c12.688 0 23 10.313 23 23 0 12.688-10.312 23-23 23C18.313 54 8 43.688 8 31 8 18.313 18.313 8 31 8Zm0 27c2.212 0 4-1.788 4-4s-1.788-4-4-4-4 1.788-4 4 1.788 4 4 4Z"/></svg>