<svg width="49" height="70" viewBox="0 0 49 70" fill="none" xmlns="http://www.w3.org/2000/svg">
<path d="M17.4473 14.3243C21.3965 14.3243 24.6096 11.1114 24.6096 7.16224C24.6096 3.21288 21.3965 0 17.4473 0C13.4982 0 10.2851 3.21288 10.2851 7.16224C10.2851 11.1114 13.498 14.3243 17.4473 14.3243ZM17.4473 3.43522C19.5026 3.43522 21.1744 5.10721 21.1744 7.16224C21.1744 9.21726 19.5024 10.8891 17.4473 10.8891C15.3923 10.8891 13.7203 9.21726 13.7203 7.16224C13.7203 5.10721 15.3921 3.43522 17.4473 3.43522ZM14.9826 68.2362C14.983 68.2511 14.9831 68.266 14.9831 68.2809C14.9831 68.8072 14.7465 69.2782 14.3736 69.5933C14.0745 69.8464 13.6875 69.9989 13.265 69.9989C13.2514 69.9989 13.2377 69.9987 13.2241 69.9985H8.62417C7.67548 69.9985 6.90657 69.2296 6.90657 68.2809C6.90657 67.3322 7.67548 66.5633 8.62417 66.5633H11.5472V51.0866C11.5472 50.138 12.3161 49.369 13.2648 49.369C14.2135 49.369 14.9824 50.138 14.9824 51.0866V68.2362H14.9826ZM13.4589 29.2915V42.7601H21.4356V29.2915C21.4356 28.3428 22.2045 27.5739 23.1532 27.5739C24.1019 27.5739 24.8708 28.3428 24.8708 29.2915V44.4782C24.8708 45.4269 24.1019 46.1959 23.1532 46.1959C23.1385 46.1959 23.1238 46.1957 23.1093 46.1953H11.7853C11.7708 46.1957 11.7561 46.1959 11.7414 46.1959C10.7928 46.1959 10.0238 45.4269 10.0238 44.4782V29.2915C10.0238 28.3428 10.7928 27.5739 11.7414 27.5739C12.6901 27.5739 13.4589 28.3428 13.4589 29.2915ZM47.5064 34.6314C46.6564 33.4974 45.4194 32.7626 44.0231 32.5628C41.7576 32.2378 39.6192 33.4042 38.5989 35.314L33.6431 26.6497C30.9773 21.9898 27.0264 16.6411 20.077 16.6411H14.8171C7.46784 16.6411 5.18838 22.6116 4.11297 27.1023L0.0475814 44.0782C-0.173227 45.0008 0.395493 45.9277 1.31804 46.1487C2.23982 46.3699 3.16733 45.801 3.38852 44.8784L7.45391 27.9026C8.40318 23.9385 9.76047 21.6482 11.875 20.6604L15.8689 29.969C15.9616 30.1856 16.0939 30.3732 16.2532 30.5273C16.254 30.528 16.2549 30.5288 16.2559 30.5295C16.3742 30.6437 16.5107 30.742 16.6635 30.8202C16.6635 30.8202 16.6637 30.8202 16.6639 30.8204C16.6647 30.8208 16.6654 30.8212 16.6662 30.8215C16.717 30.8473 16.7691 30.8708 16.8219 30.8916C16.8231 30.892 16.8242 30.8923 16.8254 30.8929C17.029 30.9723 17.2395 31.0099 17.4468 31.0099C17.4471 31.0099 17.4479 31.0099 17.4483 31.0099C17.6737 31.0099 17.9027 30.9652 18.1227 30.8712C18.1229 30.8712 18.1233 30.871 18.1235 30.8708C18.1241 30.8706 18.1246 30.8702 18.1262 30.8698C18.1269 30.8694 18.1277 30.8691 18.1285 30.8689C18.1292 30.8687 18.1298 30.8683 18.1304 30.8681C18.1319 30.8675 18.1332 30.867 18.1346 30.8664C18.135 30.8662 18.1355 30.866 18.1359 30.8658C18.1371 30.8654 18.1382 30.8649 18.1393 30.8645C18.1397 30.8643 18.1403 30.8641 18.1407 30.8639C18.1422 30.8633 18.1435 30.8628 18.1449 30.862C18.1453 30.8618 18.1458 30.8616 18.1462 30.8614C18.1472 30.861 18.1483 30.8607 18.1493 30.8603C18.15 30.8599 18.1506 30.8597 18.1514 30.8593C18.1521 30.8589 18.1527 30.8587 18.1533 30.8584C18.3533 30.7685 18.5279 30.6446 18.6731 30.4967C18.6735 30.4963 18.6739 30.496 18.6743 30.4956C18.6747 30.4952 18.675 30.4946 18.6756 30.4942C18.8033 30.3639 18.9121 30.211 18.9951 30.0383C18.9953 30.0381 18.9953 30.0379 18.9955 30.0377C18.9959 30.0368 18.9964 30.036 18.9968 30.0351C19.0079 30.0122 19.0182 29.9889 19.0281 29.9656L23.0563 20.5766C25.805 21.5602 28.1908 24.0364 30.6619 28.356L37.5519 40.4016L33.5944 68.0387C33.46 68.9776 34.1122 69.8479 35.0513 69.9824C35.1339 69.9943 35.2158 70 35.2969 70C36.1374 70 36.8723 69.3822 36.9949 68.5257L40.9919 40.613C41.049 40.4329 41.0765 40.2434 41.0721 40.0529L41.4318 37.5416C41.5773 36.5263 42.5216 35.8179 43.5367 35.9639C44.0249 36.0337 44.4586 36.2925 44.7583 36.6921C45.0577 37.092 45.1842 37.5807 45.1144 38.0687C44.9798 39.0077 45.6322 39.8779 46.5711 40.0125C47.512 40.1472 48.3803 39.4947 48.5151 38.5557C48.7143 37.1589 48.3563 35.7654 47.5064 34.6314ZM17.4473 24.9351L15.3627 20.0762H19.5319L17.4473 24.9351ZM27.9879 68.2811C27.9879 69.2298 27.219 69.9987 26.2703 69.9987H21.6698C21.6562 69.9989 21.6425 69.999 21.629 69.999C20.6803 69.999 19.9113 69.2301 19.9113 68.2814V51.0866C19.9113 50.138 20.6803 49.369 21.629 49.369C22.5776 49.369 23.3466 50.138 23.3466 51.0866V66.5633H26.2703C27.219 66.5634 27.9879 67.3324 27.9879 68.2811Z" fill="black"/>
</svg>
