<svg width="634" height="634" viewBox="0 0 634 634" fill="none" xmlns="http://www.w3.org/2000/svg">
<path fill-rule="evenodd" clip-rule="evenodd" d="M170.651 449.334C171.893 449.379 173.345 449.406 175.035 449.404C188.513 449.394 201.003 452.438 211.571 459.432C222.169 466.447 228.69 476.013 232.62 485.371C238.166 498.575 239.216 513.39 239.41 524.082C241.706 524.708 244.886 525.389 249.156 526.004C266.405 528.485 290.541 528.528 318.36 528.504C346.18 528.481 370.315 528.4 387.56 525.89C391.829 525.269 395.008 524.582 397.302 523.954C397.479 513.26 398.506 498.444 404.029 485.229C407.944 475.866 414.449 466.289 425.037 459.258C435.593 452.247 448.078 449.181 461.554 449.171C463.245 449.169 464.698 449.139 465.938 449.093C465.943 447.888 465.932 446.53 465.905 444.993C465.866 442.736 465.785 439.979 465.692 436.849C465.5 430.263 465.258 422.028 465.251 413.342C465.228 384.954 475.646 368.514 483.236 356.538C484.829 354.024 486.297 351.706 487.519 349.515C494.215 337.506 503.104 316.793 503.058 260.536C503.015 208.82 480.794 171.115 447.322 145.639C413.117 119.605 366.213 105.798 318.014 105.838C269.816 105.877 222.934 119.76 188.772 145.851C155.343 171.381 133.182 209.122 133.224 260.838C133.271 317.095 142.193 337.795 148.908 349.792C150.134 351.981 151.606 354.297 153.203 356.809C160.812 368.773 171.258 385.196 171.281 413.582C171.288 422.269 171.061 430.505 170.879 437.092C170.791 440.221 170.715 442.977 170.679 445.235C170.655 446.772 170.646 448.13 170.651 449.334ZM144.488 435.637C143.584 467.946 143.363 475.848 175.058 475.821C212.989 475.791 213.017 509.74 213.036 532.374C213.054 555.008 264.194 554.965 318.381 554.921C372.57 554.877 423.71 554.835 423.691 532.201C423.673 509.568 423.645 475.618 461.577 475.587C493.271 475.561 493.038 467.66 492.079 435.353C491.891 428.996 491.675 421.693 491.668 413.321C491.651 393.173 497.581 383.648 504.748 372.136C515.697 354.55 529.532 332.327 529.474 260.515C529.277 18.826 106.609 19.1722 106.808 260.861C106.867 332.673 120.739 354.874 131.716 372.441C138.902 383.941 144.848 393.457 144.865 413.605C144.871 421.977 144.667 429.28 144.488 435.637Z" fill="black"/>
<path d="M294.738 354.319C294.769 389.056 268.512 417.235 236.091 417.261C203.669 417.284 177.362 389.145 177.332 354.407C177.302 319.671 203.559 291.491 235.98 291.467C268.401 291.442 294.709 319.582 294.738 354.319Z" fill="black"/>
<path d="M459.103 354.164C459.129 388.902 432.868 417.084 400.447 417.113C368.026 417.14 341.722 389.003 341.695 354.266C341.668 319.529 367.928 291.347 400.35 291.319C432.771 291.29 459.075 319.428 459.103 354.164Z" fill="black"/>
<path d="M357.944 479.282C357.953 491.098 349.077 502.062 336.911 502.073C328.47 502.079 322.201 497.168 318.328 490.198C314.466 497.175 308.207 502.096 299.763 502.103C287.595 502.112 278.703 491.161 278.694 479.348C278.673 454.056 318.283 436.045 318.283 436.045C318.283 436.045 357.922 452.903 357.944 479.282Z" fill="black"/>
</svg>
