<svg width="70" height="73" viewBox="0 0 70 73" fill="none" xmlns="http://www.w3.org/2000/svg">
<g clip-path="url(#clip0_23_60)">
<path d="M46.8867 27.4133L65.7036 8.22972L65.6424 19.1039C65.6227 20.0105 66.3227 20.7981 67.2086 20.7779L68.3308 20.7757C69.2146 20.7555 69.9474 20.2147 69.967 19.3081L70.013 3.10902C70.013 3.09331 69.9539 3.08209 69.9539 3.06639L70.0414 2.2451C70.0502 1.78958 69.9452 1.38342 69.6608 1.09395C69.3764 0.799996 68.9805 0.622724 68.5408 0.636188L67.7402 0.656383C67.7249 0.656383 67.7139 0.663115 67.6964 0.665359L52.0077 0.593553C51.1239 0.613748 50.3933 1.36323 50.3736 2.27203L50.3714 3.42318C50.5049 4.4913 51.3252 5.11736 52.2089 5.09716L62.5471 5.12633L43.7958 24.2448C42.9427 25.1199 42.9427 26.5426 43.7958 27.42C44.6489 28.2974 46.0336 28.2951 46.8889 27.42L46.8867 27.4133ZM23.1808 45.4771L4.36393 64.6023L4.42299 53.7864C4.44486 52.8799 3.74049 52.09 2.85674 52.1102L1.66674 52.1124C0.7808 52.1349 0.0501755 52.6734 0.0304879 53.58L-0.0154496 69.7791C-0.0154496 69.7948 0.0458004 69.8037 0.0458004 69.8217L-0.0416996 70.6407C-0.052637 71.0963 0.052363 71.5047 0.338925 71.7941C0.621113 72.0881 1.01924 72.2654 1.45893 72.2541L2.25955 72.2339C2.27486 72.2339 2.2858 72.2272 2.3033 72.2272L18.0599 72.299C18.9436 72.2766 19.6742 71.5271 19.6961 70.6205L19.6983 69.4671C19.5627 68.399 18.7446 67.773 17.8608 67.7932L7.52268 67.7662L26.2717 48.6523C27.1249 47.7771 27.1249 46.3567 26.2717 45.4793C25.4186 44.6019 24.0339 44.5997 23.1808 45.4771ZM70.0152 69.7791L69.9692 53.58C69.9495 52.6734 69.2189 52.1326 68.3352 52.1124L67.213 52.1102C66.3292 52.09 65.6271 52.8799 65.6467 53.7864L65.708 64.6606L46.8911 45.4771C46.038 44.6019 44.6533 44.6019 43.798 45.4771C42.9427 46.3522 42.9449 47.7726 43.798 48.65L62.5471 67.764L52.2089 67.7909C51.3252 67.7707 50.5049 68.3968 50.3714 69.4649L50.3736 70.6183C50.3933 71.5249 51.1261 72.2766 52.0077 72.2968L67.6964 72.225C67.7139 72.225 67.7249 72.2317 67.7402 72.2317L68.5408 72.2519C68.9805 72.2631 69.3808 72.0858 69.6608 71.7919C69.9474 71.5024 70.0502 71.094 70.0414 70.6385L69.9539 69.8195C69.9539 69.8015 70.013 69.7925 70.013 69.7768L70.0152 69.7791ZM7.52268 5.12185L17.863 5.09492C18.7467 5.11511 19.5649 4.48905 19.7005 3.42093L19.6983 2.26978C19.6764 1.36098 18.9458 0.611504 18.062 0.591309L2.3033 0.660871C2.2858 0.658627 2.27486 0.651895 2.25955 0.651895L1.45893 0.6317C1.01924 0.62048 0.621113 0.797752 0.338925 1.08947C0.0501755 1.38118 -0.052637 1.78509 -0.0416996 2.24286L0.0458004 3.06414C0.0458004 3.07985 -0.0154496 3.09107 -0.0154496 3.10902L0.0304879 19.3081C0.0501755 20.2147 0.7808 20.7555 1.66674 20.7757L2.85893 20.7779C3.74268 20.7981 4.44268 20.0105 4.42299 19.1039L4.36174 8.29031L23.1786 27.4155C24.0317 28.2906 25.4186 28.2906 26.2717 27.4155C27.1249 26.5404 27.1249 25.1177 26.2717 24.2403L7.52268 5.12185Z" fill="black"/>
</g>
<defs>
<clipPath id="clip0_23_60">
<rect width="70" height="71.8064" fill="white" transform="translate(0 0.541992)"/>
</clipPath>
</defs>
</svg>
