<svg width="92" height="94" viewBox="0 0 92 94" fill="none" xmlns="http://www.w3.org/2000/svg">
<path d="M79.9099 0H11.4157C8.38807 0 5.48444 1.23616 3.34358 3.43654C1.20272 5.63692 0 8.62127 0 11.7331L0 82.1316C0 85.2434 1.20272 88.2277 3.34358 90.4281C5.48444 92.6285 8.38807 93.8646 11.4157 93.8646H79.9099C82.9375 93.8646 85.8411 92.6285 87.982 90.4281C90.1229 88.2277 91.3256 85.2434 91.3256 82.1316V11.7331C91.3256 8.62127 90.1229 5.63692 87.982 3.43654C85.8411 1.23616 82.9375 0 79.9099 0ZM5.70785 22.6272C5.70785 19.8524 8.26497 17.5996 11.4157 17.5996H79.9099C83.0606 17.5996 85.6177 19.8524 85.6177 22.6272V82.9705C85.6177 85.7453 83.0606 87.9981 79.9099 87.9981H11.4157C8.26497 87.9981 5.70785 85.7453 5.70785 82.9705V22.6272Z" fill="black"/>
<path d="M37.1009 41.0656C38.6147 41.0656 40.0666 40.4475 41.137 39.3473C42.2074 38.2471 42.8088 36.755 42.8088 35.1991C42.8088 33.6432 42.2074 32.151 41.137 31.0508C40.0666 29.9506 38.6147 29.3325 37.1009 29.3325C35.5871 29.3325 34.1353 29.9506 33.0649 31.0508C31.9944 32.151 31.3931 33.6432 31.3931 35.1991C31.3931 36.755 31.9944 38.2471 33.0649 39.3473C34.1353 40.4475 35.5871 41.0656 37.1009 41.0656ZM54.2245 41.0656C55.7383 41.0656 57.1901 40.4475 58.2605 39.3473C59.331 38.2471 59.9323 36.755 59.9323 35.1991C59.9323 33.6432 59.331 32.151 58.2605 31.0508C57.1901 29.9506 55.7383 29.3325 54.2245 29.3325C52.7107 29.3325 51.2588 29.9506 50.1884 31.0508C49.118 32.151 48.5166 33.6432 48.5166 35.1991C48.5166 36.755 49.118 38.2471 50.1884 39.3473C51.2588 40.4475 52.7107 41.0656 54.2245 41.0656ZM71.348 41.0656C72.8618 41.0656 74.3136 40.4475 75.3841 39.3473C76.4545 38.2471 77.0559 36.755 77.0559 35.1991C77.0559 33.6432 76.4545 32.151 75.3841 31.0508C74.3136 29.9506 72.8618 29.3325 71.348 29.3325C69.8342 29.3325 68.3824 29.9506 67.312 31.0508C66.2415 32.151 65.6402 33.6432 65.6402 35.1991C65.6402 36.755 66.2415 38.2471 67.312 39.3473C68.3824 40.4475 69.8342 41.0656 71.348 41.0656ZM19.9774 58.6652C21.4912 58.6652 22.943 58.0471 24.0134 56.9469C25.0839 55.8468 25.6852 54.3546 25.6852 52.7987C25.6852 51.2428 25.0839 49.7506 24.0134 48.6504C22.943 47.5502 21.4912 46.9321 19.9774 46.9321C18.4636 46.9321 17.0118 47.5502 15.9413 48.6504C14.8709 49.7506 14.2695 51.2428 14.2695 52.7987C14.2695 54.3546 14.8709 55.8468 15.9413 56.9469C17.0118 58.0471 18.4636 58.6652 19.9774 58.6652ZM37.1009 58.6652C38.6147 58.6652 40.0666 58.0471 41.137 56.9469C42.2074 55.8468 42.8088 54.3546 42.8088 52.7987C42.8088 51.2428 42.2074 49.7506 41.137 48.6504C40.0666 47.5502 38.6147 46.9321 37.1009 46.9321C35.5871 46.9321 34.1353 47.5502 33.0649 48.6504C31.9944 49.7506 31.3931 51.2428 31.3931 52.7987C31.3931 54.3546 31.9944 55.8468 33.0649 56.9469C34.1353 58.0471 35.5871 58.6652 37.1009 58.6652ZM54.2245 58.6652C55.7383 58.6652 57.1901 58.0471 58.2605 56.9469C59.331 55.8468 59.9323 54.3546 59.9323 52.7987C59.9323 51.2428 59.331 49.7506 58.2605 48.6504C57.1901 47.5502 55.7383 46.9321 54.2245 46.9321C52.7107 46.9321 51.2588 47.5502 50.1884 48.6504C49.118 49.7506 48.5166 51.2428 48.5166 52.7987C48.5166 54.3546 49.118 55.8468 50.1884 56.9469C51.2588 58.0471 52.7107 58.6652 54.2245 58.6652ZM71.348 58.6652C72.8618 58.6652 74.3136 58.0471 75.3841 56.9469C76.4545 55.8468 77.0559 54.3546 77.0559 52.7987C77.0559 51.2428 76.4545 49.7506 75.3841 48.6504C74.3136 47.5502 72.8618 46.9321 71.348 46.9321C69.8342 46.9321 68.3824 47.5502 67.312 48.6504C66.2415 49.7506 65.6402 51.2428 65.6402 52.7987C65.6402 54.3546 66.2415 55.8468 67.312 56.9469C68.3824 58.0471 69.8342 58.6652 71.348 58.6652ZM19.9774 76.2648C21.4912 76.2648 22.943 75.6468 24.0134 74.5466C25.0839 73.4464 25.6852 71.9542 25.6852 70.3983C25.6852 68.8424 25.0839 67.3502 24.0134 66.25C22.943 65.1498 21.4912 64.5318 19.9774 64.5318C18.4636 64.5318 17.0118 65.1498 15.9413 66.25C14.8709 67.3502 14.2695 68.8424 14.2695 70.3983C14.2695 71.9542 14.8709 73.4464 15.9413 74.5466C17.0118 75.6468 18.4636 76.2648 19.9774 76.2648ZM37.1009 76.2648C38.6147 76.2648 40.0666 75.6468 41.137 74.5466C42.2074 73.4464 42.8088 71.9542 42.8088 70.3983C42.8088 68.8424 42.2074 67.3502 41.137 66.25C40.0666 65.1498 38.6147 64.5318 37.1009 64.5318C35.5871 64.5318 34.1353 65.1498 33.0649 66.25C31.9944 67.3502 31.3931 68.8424 31.3931 70.3983C31.3931 71.9542 31.9944 73.4464 33.0649 74.5466C34.1353 75.6468 35.5871 76.2648 37.1009 76.2648ZM54.2245 76.2648C55.7383 76.2648 57.1901 75.6468 58.2605 74.5466C59.331 73.4464 59.9323 71.9542 59.9323 70.3983C59.9323 68.8424 59.331 67.3502 58.2605 66.25C57.1901 65.1498 55.7383 64.5318 54.2245 64.5318C52.7107 64.5318 51.2588 65.1498 50.1884 66.25C49.118 67.3502 48.5166 68.8424 48.5166 70.3983C48.5166 71.9542 49.118 73.4464 50.1884 74.5466C51.2588 75.6468 52.7107 76.2648 54.2245 76.2648Z" fill="black"/>
</svg>
