<svg width="256" height="256" viewBox="0 0 256 256" fill="none" xmlns="http://www.w3.org/2000/svg">
<path d="M203.172 168.32C202.289 168.32 201.195 168.32 200 168.32V0H184V168.422C174.93 168.953 171.5 175.242 171.5 180.984C171.5 181.758 171.5 184 171.5 186.938C169.062 172.297 162.938 158.984 155.289 149.055C165.266 141.047 171.672 128.781 171.672 115C171.672 95.047 158.274 78.25 140 73.039V85.703C151.531 90.445 159.672 101.781 159.672 115C159.672 128.211 151.531 139.547 140 144.281V168.656H153.266C155.563 173.508 157.399 178.665 158.656 183.954H140V218.031H160.672V232.617H140V256H172.672C172.672 256 172.672 242.312 172.672 216.453C174.398 219.969 178.031 221.656 183.172 221.656C183.406 221.656 183.719 221.656 184 221.656V256H200V221.656C200.055 221.656 200.109 221.656 200.172 221.656C207.172 221.656 209.766 218.016 211.844 215.32C215.172 210.984 219.501 194.656 217.501 181.32C216.805 176.657 211.844 168.32 203.172 168.32ZM205.484 210.453L205.312 210.672C203.61 212.906 203.031 213.656 200.172 213.656H183.172C179.5 213.656 179.5 213.141 179.5 210.984V180.984C179.5 176.852 182.531 176.32 185.172 176.32H203.172C207.016 176.32 209.375 181.016 209.594 182.508C211.375 194.406 207.203 208.086 205.484 210.453Z" fill="black"/>
<path d="M256 0H240V256H256V0Z" fill="black"/>
<path d="M16 0H0V256H16V0Z" fill="black"/>
<path d="M84.336 115C84.336 128.781 90.7345 141.047 100.711 149.047C93.0625 158.984 86.9375 172.297 84.5 186.93C84.5 184 84.5 181.758 84.5 180.984C84.5 175.242 81.0705 168.953 72 168.422V0H56V168.32C54.8045 168.32 53.711 168.32 52.828 168.32C44.164 168.32 39.195 176.656 38.5 181.32C36.5 194.656 40.828 210.984 44.164 215.32C46.2345 218.016 48.828 221.656 55.828 221.656C55.8905 221.656 55.945 221.656 56 221.656V256H72V221.656C72.2815 221.656 72.594 221.656 72.828 221.656C77.9765 221.656 81.6095 219.969 83.336 216.453C83.336 242.312 83.336 256 83.336 256H116V232.617H95.336V218.031H116V183.953H97.3515C98.6015 178.664 100.438 173.5 102.735 168.656H116V144.281C104.477 139.547 96.336 128.21 96.336 114.999C96.336 101.78 104.477 90.445 116 85.7025V73.0305C97.7265 78.25 84.336 95.047 84.336 115ZM76.5 210.984C76.5 213.141 76.5 213.656 72.828 213.656H55.828C52.9685 213.656 52.3905 212.906 50.6875 210.672L50.5155 210.453C48.8045 208.086 44.625 194.406 46.406 182.508C46.6325 181.016 48.992 176.32 52.828 176.32H70.828C73.4685 176.32 76.5 176.851 76.5 180.984V210.984Z" fill="black"/>
<path d="M136 0H120V256H136V0Z" fill="black"/>
</svg>
